<svg width="867" height="603" viewBox="0 0 867 603" fill="none" xmlns="http://www.w3.org/2000/svg">
<circle cx="248.5" cy="354.5" r="242.5" fill="white" fill-opacity="0.4" stroke="white" stroke-width="12"/>
<circle cx="618.5" cy="354.5" r="242.5" fill="#67B3F9" fill-opacity="0.4" stroke="#9CCCF9" stroke-width="12"/>
<mask id="path-3-inside-1" fill="white">
<path fill-rule="evenodd" clip-rule="evenodd" d="M433.5 519.834C472.982 475.839 497 417.683 497 353.917C497 290.151 472.982 231.994 433.5 188C394.018 231.994 370 290.151 370 353.917C370 417.683 394.018 475.839 433.5 519.834Z"/>
</mask>
<path fill-rule="evenodd" clip-rule="evenodd" d="M433.5 519.834C472.982 475.839 497 417.683 497 353.917C497 290.151 472.982 231.994 433.5 188C394.018 231.994 370 290.151 370 353.917C370 417.683 394.018 475.839 433.5 519.834Z" fill="#9E97EC" fill-opacity="0.4"/>
<path d="M433.5 519.834L424.569 527.849L433.5 537.8L442.431 527.849L433.5 519.834ZM433.5 188L442.431 179.985L433.5 170.034L424.569 179.985L433.5 188ZM485 353.917C485 414.611 462.152 469.941 424.569 511.819L442.431 527.849C483.813 481.738 509 420.755 509 353.917H485ZM424.569 196.015C462.152 237.893 485 293.222 485 353.917H509C509 287.079 483.813 226.096 442.431 179.985L424.569 196.015ZM382 353.917C382 293.222 404.848 237.893 442.431 196.015L424.569 179.985C383.187 226.096 358 287.079 358 353.917H382ZM442.431 511.819C404.848 469.941 382 414.611 382 353.917H358C358 420.755 383.187 481.738 424.569 527.849L442.431 511.819Z" fill="#AAB3F2" mask="url(#path-3-inside-1)"/>
<path d="M566.048 349C565.904 349 565.808 348.944 565.76 348.832L562.232 341.392C562.216 341.344 562.184 341.32 562.136 341.32H558.056C557.992 341.32 557.96 341.352 557.96 341.416V348.76C557.96 348.92 557.88 349 557.72 349H556.496C556.336 349 556.256 348.92 556.256 348.76V332.44C556.256 332.28 556.336 332.2 556.496 332.2H562.712C564.088 332.2 565.2 332.632 566.048 333.496C566.896 334.344 567.32 335.456 567.32 336.832C567.32 337.952 567.016 338.904 566.408 339.688C565.8 340.472 564.976 340.976 563.936 341.2C563.872 341.232 563.856 341.272 563.888 341.32L567.488 348.712C567.504 348.744 567.512 348.784 567.512 348.832C567.512 348.944 567.448 349 567.32 349H566.048ZM558.056 333.688C557.992 333.688 557.96 333.72 557.96 333.784V339.856C557.96 339.92 557.992 339.952 558.056 339.952H562.52C563.448 339.952 564.2 339.664 564.776 339.088C565.352 338.512 565.64 337.76 565.64 336.832C565.64 335.904 565.352 335.152 564.776 334.576C564.2 333.984 563.448 333.688 562.52 333.688H558.056ZM581.823 333.448C581.823 333.608 581.743 333.688 581.583 333.688H572.751C572.687 333.688 572.655 333.72 572.655 333.784V339.712C572.655 339.776 572.687 339.808 572.751 339.808H578.943C579.103 339.808 579.183 339.888 579.183 340.048V341.056C579.183 341.216 579.103 341.296 578.943 341.296H572.751C572.687 341.296 572.655 341.328 572.655 341.392V347.416C572.655 347.48 572.687 347.512 572.751 347.512H581.583C581.743 347.512 581.823 347.592 581.823 347.752V348.76C581.823 348.92 581.743 349 581.583 349H571.191C571.031 349 570.951 348.92 570.951 348.76V332.44C570.951 332.28 571.031 332.2 571.191 332.2H581.583C581.743 332.2 581.823 332.28 581.823 332.44V333.448ZM595.443 349C595.299 349 595.203 348.936 595.155 348.808L594.195 345.784C594.179 345.736 594.147 345.712 594.099 345.712H586.923C586.875 345.712 586.843 345.736 586.827 345.784L585.867 348.808C585.819 348.936 585.723 349 585.579 349H584.283C584.107 349 584.043 348.912 584.091 348.736L589.395 332.392C589.443 332.264 589.539 332.2 589.683 332.2H591.315C591.459 332.2 591.555 332.264 591.603 332.392L596.931 348.736L596.955 348.832C596.955 348.944 596.883 349 596.739 349H595.443ZM587.307 344.2C587.291 344.232 587.291 344.264 587.307 344.296C587.339 344.312 587.371 344.32 587.403 344.32H593.595C593.627 344.32 593.651 344.312 593.667 344.296C593.699 344.264 593.707 344.232 593.691 344.2L590.571 334.408C590.555 334.376 590.531 334.36 590.499 334.36C590.467 334.36 590.443 334.376 590.427 334.408L587.307 344.2ZM600.301 349C600.141 349 600.061 348.92 600.061 348.76V332.44C600.061 332.28 600.141 332.2 600.301 332.2H601.525C601.685 332.2 601.765 332.28 601.765 332.44V347.416C601.765 347.48 601.797 347.512 601.861 347.512H610.333C610.493 347.512 610.573 347.592 610.573 347.752V348.76C610.573 348.92 610.493 349 610.333 349H600.301ZM612.621 342.28C612.461 342.28 612.381 342.2 612.381 342.04V341.032C612.381 340.872 612.461 340.792 612.621 340.792H619.725C619.885 340.792 619.965 340.872 619.965 341.032V342.04C619.965 342.2 619.885 342.28 619.725 342.28H612.621ZM623.387 349C623.227 349 623.147 348.92 623.147 348.76V332.44C623.147 332.28 623.227 332.2 623.387 332.2H624.611C624.771 332.2 624.851 332.28 624.851 332.44V347.416C624.851 347.48 624.883 347.512 624.947 347.512H633.419C633.579 347.512 633.659 347.592 633.659 347.752V348.76C633.659 348.92 633.579 349 633.419 349H623.387ZM637.027 349C636.867 349 636.787 348.92 636.787 348.76V332.44C636.787 332.28 636.867 332.2 637.027 332.2H638.251C638.411 332.2 638.491 332.28 638.491 332.44V348.76C638.491 348.92 638.411 349 638.251 349H637.027ZM653.846 333.448C653.846 333.608 653.766 333.688 653.606 333.688H644.798C644.734 333.688 644.702 333.72 644.702 333.784V339.712C644.702 339.776 644.734 339.808 644.798 339.808H650.966C651.126 339.808 651.206 339.888 651.206 340.048V341.056C651.206 341.216 651.126 341.296 650.966 341.296H644.798C644.734 341.296 644.702 341.328 644.702 341.392V348.76C644.702 348.92 644.622 349 644.462 349H643.238C643.078 349 642.998 348.92 642.998 348.76V332.44C642.998 332.28 643.078 332.2 643.238 332.2H653.606C653.766 332.2 653.846 332.28 653.846 332.44V333.448ZM667.511 333.448C667.511 333.608 667.431 333.688 667.271 333.688H658.439C658.375 333.688 658.343 333.72 658.343 333.784V339.712C658.343 339.776 658.375 339.808 658.439 339.808H664.631C664.791 339.808 664.871 339.888 664.871 340.048V341.056C664.871 341.216 664.791 341.296 664.631 341.296H658.439C658.375 341.296 658.343 341.328 658.343 341.392V347.416C658.343 347.48 658.375 347.512 658.439 347.512H667.271C667.431 347.512 667.511 347.592 667.511 347.752V348.76C667.511 348.92 667.431 349 667.271 349H656.879C656.719 349 656.639 348.92 656.639 348.76V332.44C656.639 332.28 656.719 332.2 656.879 332.2H667.271C667.431 332.2 667.511 332.28 667.511 332.44V333.448ZM561.104 378.192C559.296 378.192 557.864 377.784 556.808 376.968C555.768 376.152 555.248 375.064 555.248 373.704V372.96C555.248 372.8 555.328 372.72 555.488 372.72H556.664C556.824 372.72 556.904 372.8 556.904 372.96V373.608C556.904 374.536 557.288 375.288 558.056 375.864C558.824 376.424 559.888 376.704 561.248 376.704C562.48 376.704 563.416 376.448 564.056 375.936C564.696 375.408 565.016 374.712 565.016 373.848C565.016 373.288 564.864 372.808 564.56 372.408C564.272 372.008 563.816 371.632 563.192 371.28C562.584 370.928 561.72 370.52 560.6 370.056C559.4 369.576 558.464 369.16 557.792 368.808C557.136 368.44 556.6 367.976 556.184 367.416C555.784 366.84 555.584 366.12 555.584 365.256C555.584 363.912 556.048 362.872 556.976 362.136C557.92 361.384 559.208 361.008 560.84 361.008C562.616 361.008 564.016 361.424 565.04 362.256C566.064 363.088 566.576 364.192 566.576 365.568V366.096C566.576 366.256 566.496 366.336 566.336 366.336H565.136C564.976 366.336 564.896 366.256 564.896 366.096V365.664C564.896 364.736 564.528 363.976 563.792 363.384C563.072 362.792 562.064 362.496 560.768 362.496C559.632 362.496 558.76 362.728 558.152 363.192C557.544 363.656 557.24 364.328 557.24 365.208C557.24 365.784 557.384 366.264 557.672 366.648C557.976 367.016 558.4 367.344 558.944 367.632C559.504 367.904 560.36 368.264 561.512 368.712C562.68 369.192 563.616 369.64 564.32 370.056C565.04 370.472 565.616 370.984 566.048 371.592C566.496 372.184 566.72 372.912 566.72 373.776C566.72 375.12 566.224 376.192 565.232 376.992C564.24 377.792 562.864 378.192 561.104 378.192ZM570.512 378C570.352 378 570.272 377.92 570.272 377.76V361.44C570.272 361.28 570.352 361.2 570.512 361.2H571.736C571.896 361.2 571.976 361.28 571.976 361.44V377.76C571.976 377.92 571.896 378 571.736 378H570.512ZM587.379 361.368C587.459 361.256 587.555 361.2 587.667 361.2H588.915C589.075 361.2 589.155 361.28 589.155 361.44V377.76C589.155 377.92 589.075 378 588.915 378H587.691C587.531 378 587.451 377.92 587.451 377.76V364.416C587.451 364.368 587.435 364.336 587.403 364.32C587.371 364.304 587.347 364.32 587.331 364.368L583.419 370.368C583.339 370.48 583.243 370.536 583.131 370.536H582.507C582.395 370.536 582.299 370.488 582.219 370.392L578.307 364.44C578.291 364.392 578.267 364.376 578.235 364.392C578.203 364.408 578.187 364.44 578.187 364.488V377.76C578.187 377.92 578.107 378 577.947 378H576.723C576.563 378 576.483 377.92 576.483 377.76V361.44C576.483 361.28 576.563 361.2 576.723 361.2H577.971C578.099 361.2 578.195 361.248 578.259 361.344L582.771 368.184C582.787 368.2 582.811 368.208 582.843 368.208C582.875 368.208 582.899 368.2 582.915 368.184L587.379 361.368ZM599.159 378.192C598.039 378.192 597.047 377.968 596.183 377.52C595.319 377.072 594.647 376.448 594.167 375.648C593.687 374.832 593.447 373.888 593.447 372.816V361.44C593.447 361.28 593.527 361.2 593.687 361.2H594.911C595.071 361.2 595.151 361.28 595.151 361.44V372.864C595.151 374 595.519 374.928 596.255 375.648C596.991 376.352 597.959 376.704 599.159 376.704C600.359 376.704 601.327 376.352 602.063 375.648C602.799 374.928 603.167 374 603.167 372.864V361.44C603.167 361.28 603.247 361.2 603.407 361.2H604.631C604.791 361.2 604.871 361.28 604.871 361.44V372.816C604.871 373.888 604.631 374.832 604.151 375.648C603.687 376.448 603.023 377.072 602.159 377.52C601.295 377.968 600.295 378.192 599.159 378.192ZM609.441 378C609.281 378 609.201 377.92 609.201 377.76V361.44C609.201 361.28 609.281 361.2 609.441 361.2H610.665C610.825 361.2 610.905 361.28 610.905 361.44V376.416C610.905 376.48 610.937 376.512 611.001 376.512H619.473C619.633 376.512 619.713 376.592 619.713 376.752V377.76C619.713 377.92 619.633 378 619.473 378H609.441ZM633.81 378C633.666 378 633.57 377.936 633.522 377.808L632.562 374.784C632.546 374.736 632.514 374.712 632.466 374.712H625.29C625.242 374.712 625.21 374.736 625.194 374.784L624.234 377.808C624.186 377.936 624.09 378 623.946 378H622.65C622.474 378 622.41 377.912 622.458 377.736L627.762 361.392C627.81 361.264 627.906 361.2 628.05 361.2H629.682C629.826 361.2 629.922 361.264 629.97 361.392L635.298 377.736L635.322 377.832C635.322 377.944 635.25 378 635.106 378H633.81ZM625.674 373.2C625.658 373.232 625.658 373.264 625.674 373.296C625.706 373.312 625.738 373.32 625.77 373.32H631.962C631.994 373.32 632.018 373.312 632.034 373.296C632.066 373.264 632.074 373.232 632.058 373.2L628.938 363.408C628.922 363.376 628.898 363.36 628.866 363.36C628.834 363.36 628.81 363.376 628.794 363.408L625.674 373.2ZM646.986 361.2C647.146 361.2 647.226 361.28 647.226 361.44V362.472C647.226 362.632 647.146 362.712 646.986 362.712H642.282C642.218 362.712 642.186 362.744 642.186 362.808V377.76C642.186 377.92 642.106 378 641.946 378H640.722C640.562 378 640.482 377.92 640.482 377.76V362.808C640.482 362.744 640.45 362.712 640.386 362.712H635.874C635.714 362.712 635.634 362.632 635.634 362.472V361.44C635.634 361.28 635.714 361.2 635.874 361.2H646.986ZM650.762 378C650.602 378 650.522 377.92 650.522 377.76V361.44C650.522 361.28 650.602 361.2 650.762 361.2H651.986C652.146 361.2 652.226 361.28 652.226 361.44V377.76C652.226 377.92 652.146 378 651.986 378H650.762ZM661.917 378.192C660.781 378.192 659.781 377.96 658.917 377.496C658.053 377.032 657.381 376.384 656.901 375.552C656.437 374.704 656.205 373.728 656.205 372.624V366.576C656.205 365.472 656.437 364.504 656.901 363.672C657.381 362.824 658.053 362.168 658.917 361.704C659.781 361.24 660.781 361.008 661.917 361.008C663.053 361.008 664.053 361.24 664.917 361.704C665.797 362.168 666.469 362.824 666.933 363.672C667.413 364.504 667.653 365.472 667.653 366.576V372.624C667.653 373.728 667.413 374.704 666.933 375.552C666.469 376.384 665.797 377.032 664.917 377.496C664.053 377.96 663.053 378.192 661.917 378.192ZM661.917 376.728C663.133 376.728 664.109 376.36 664.845 375.624C665.581 374.888 665.949 373.912 665.949 372.696V366.552C665.949 365.336 665.581 364.36 664.845 363.624C664.109 362.872 663.133 362.496 661.917 362.496C660.717 362.496 659.749 362.872 659.013 363.624C658.277 364.36 657.909 365.336 657.909 366.552V372.696C657.909 373.912 658.277 374.888 659.013 375.624C659.749 376.36 660.717 376.728 661.917 376.728ZM681.67 361.44C681.67 361.28 681.75 361.2 681.91 361.2H683.134C683.294 361.2 683.374 361.28 683.374 361.44V377.76C683.374 377.92 683.294 378 683.134 378H681.934C681.822 378 681.726 377.944 681.646 377.832L673.462 364.512C673.446 364.464 673.422 364.448 673.39 364.464C673.358 364.464 673.342 364.488 673.342 364.536L673.366 377.76C673.366 377.92 673.286 378 673.126 378H671.902C671.742 378 671.662 377.92 671.662 377.76V361.44C671.662 361.28 671.742 361.2 671.902 361.2H673.102C673.214 361.2 673.31 361.256 673.39 361.368L681.574 374.688C681.59 374.736 681.614 374.76 681.646 374.76C681.678 374.744 681.694 374.712 681.694 374.664L681.67 361.44ZM692.729 378.192C690.921 378.192 689.489 377.784 688.433 376.968C687.393 376.152 686.873 375.064 686.873 373.704V372.96C686.873 372.8 686.953 372.72 687.113 372.72H688.289C688.449 372.72 688.529 372.8 688.529 372.96V373.608C688.529 374.536 688.913 375.288 689.681 375.864C690.449 376.424 691.513 376.704 692.873 376.704C694.105 376.704 695.041 376.448 695.681 375.936C696.321 375.408 696.641 374.712 696.641 373.848C696.641 373.288 696.489 372.808 696.185 372.408C695.897 372.008 695.441 371.632 694.817 371.28C694.209 370.928 693.345 370.52 692.225 370.056C691.025 369.576 690.089 369.16 689.417 368.808C688.761 368.44 688.225 367.976 687.809 367.416C687.409 366.84 687.209 366.12 687.209 365.256C687.209 363.912 687.673 362.872 688.601 362.136C689.545 361.384 690.833 361.008 692.465 361.008C694.241 361.008 695.641 361.424 696.665 362.256C697.689 363.088 698.201 364.192 698.201 365.568V366.096C698.201 366.256 698.121 366.336 697.961 366.336H696.761C696.601 366.336 696.521 366.256 696.521 366.096V365.664C696.521 364.736 696.153 363.976 695.417 363.384C694.697 362.792 693.689 362.496 692.393 362.496C691.257 362.496 690.385 362.728 689.777 363.192C689.169 363.656 688.865 364.328 688.865 365.208C688.865 365.784 689.009 366.264 689.297 366.648C689.601 367.016 690.025 367.344 690.569 367.632C691.129 367.904 691.985 368.264 693.137 368.712C694.305 369.192 695.241 369.64 695.945 370.056C696.665 370.472 697.241 370.984 697.673 371.592C698.121 372.184 698.345 372.912 698.345 373.776C698.345 375.12 697.849 376.192 696.857 376.992C695.865 377.792 694.489 378.192 692.729 378.192Z" fill="white"/>
<path d="M172.368 330.216C171.248 330.216 170.264 330 169.416 329.568C168.568 329.12 167.904 328.496 167.424 327.696C166.96 326.88 166.728 325.944 166.728 324.888V318.288C166.728 317.248 166.96 316.328 167.424 315.528C167.904 314.728 168.568 314.112 169.416 313.68C170.264 313.232 171.248 313.008 172.368 313.008C173.488 313.008 174.472 313.224 175.32 313.656C176.168 314.088 176.824 314.696 177.288 315.48C177.768 316.264 178.008 317.168 178.008 318.192C178.008 318.272 177.984 318.336 177.936 318.384C177.888 318.432 177.832 318.456 177.768 318.456L176.544 318.528C176.384 318.528 176.304 318.456 176.304 318.312V318.24C176.304 317.104 175.944 316.2 175.224 315.528C174.504 314.84 173.552 314.496 172.368 314.496C171.184 314.496 170.232 314.84 169.512 315.528C168.792 316.216 168.432 317.12 168.432 318.24V324.96C168.432 326.08 168.792 326.984 169.512 327.672C170.232 328.36 171.184 328.704 172.368 328.704C173.552 328.704 174.504 328.368 175.224 327.696C175.944 327.008 176.304 326.096 176.304 324.96V324.912C176.304 324.768 176.384 324.696 176.544 324.696L177.768 324.768C177.928 324.768 178.008 324.84 178.008 324.984C178.008 326.024 177.768 326.944 177.288 327.744C176.824 328.528 176.168 329.136 175.32 329.568C174.472 330 173.488 330.216 172.368 330.216ZM187.018 330.192C185.882 330.192 184.882 329.96 184.018 329.496C183.154 329.032 182.482 328.384 182.002 327.552C181.538 326.704 181.306 325.728 181.306 324.624V318.576C181.306 317.472 181.538 316.504 182.002 315.672C182.482 314.824 183.154 314.168 184.018 313.704C184.882 313.24 185.882 313.008 187.018 313.008C188.154 313.008 189.154 313.24 190.018 313.704C190.898 314.168 191.57 314.824 192.034 315.672C192.514 316.504 192.754 317.472 192.754 318.576V324.624C192.754 325.728 192.514 326.704 192.034 327.552C191.57 328.384 190.898 329.032 190.018 329.496C189.154 329.96 188.154 330.192 187.018 330.192ZM187.018 328.728C188.234 328.728 189.21 328.36 189.946 327.624C190.682 326.888 191.05 325.912 191.05 324.696V318.552C191.05 317.336 190.682 316.36 189.946 315.624C189.21 314.872 188.234 314.496 187.018 314.496C185.818 314.496 184.85 314.872 184.114 315.624C183.378 316.36 183.01 317.336 183.01 318.552V324.696C183.01 325.912 183.378 326.888 184.114 327.624C184.85 328.36 185.818 328.728 187.018 328.728ZM206.556 330C206.412 330 206.316 329.944 206.268 329.832L202.74 322.392C202.724 322.344 202.692 322.32 202.644 322.32H198.564C198.5 322.32 198.468 322.352 198.468 322.416V329.76C198.468 329.92 198.388 330 198.228 330H197.004C196.844 330 196.764 329.92 196.764 329.76V313.44C196.764 313.28 196.844 313.2 197.004 313.2H203.22C204.596 313.2 205.708 313.632 206.556 314.496C207.404 315.344 207.828 316.456 207.828 317.832C207.828 318.952 207.524 319.904 206.916 320.688C206.308 321.472 205.484 321.976 204.444 322.2C204.38 322.232 204.364 322.272 204.396 322.32L207.996 329.712C208.012 329.744 208.02 329.784 208.02 329.832C208.02 329.944 207.956 330 207.828 330H206.556ZM198.564 314.688C198.5 314.688 198.468 314.72 198.468 314.784V320.856C198.468 320.92 198.5 320.952 198.564 320.952H203.028C203.956 320.952 204.708 320.664 205.284 320.088C205.86 319.512 206.148 318.76 206.148 317.832C206.148 316.904 205.86 316.152 205.284 315.576C204.708 314.984 203.956 314.688 203.028 314.688H198.564ZM217.843 313.176C219.251 313.176 220.379 313.608 221.227 314.472C222.091 315.336 222.523 316.472 222.523 317.88C222.523 319.272 222.083 320.392 221.203 321.24C220.339 322.088 219.195 322.512 217.771 322.512H213.091C213.027 322.512 212.995 322.544 212.995 322.608V329.76C212.995 329.92 212.915 330 212.755 330H211.531C211.371 330 211.291 329.92 211.291 329.76V313.416C211.291 313.256 211.371 313.176 211.531 313.176H217.843ZM217.651 321.096C218.595 321.096 219.363 320.808 219.955 320.232C220.547 319.64 220.843 318.864 220.843 317.904C220.843 316.928 220.547 316.144 219.955 315.552C219.363 314.96 218.595 314.664 217.651 314.664H213.091C213.027 314.664 212.995 314.696 212.995 314.76V321C212.995 321.064 213.027 321.096 213.091 321.096H217.651ZM230.846 330.192C229.71 330.192 228.71 329.96 227.846 329.496C226.982 329.032 226.31 328.384 225.83 327.552C225.366 326.704 225.134 325.728 225.134 324.624V318.576C225.134 317.472 225.366 316.504 225.83 315.672C226.31 314.824 226.982 314.168 227.846 313.704C228.71 313.24 229.71 313.008 230.846 313.008C231.982 313.008 232.982 313.24 233.846 313.704C234.726 314.168 235.398 314.824 235.862 315.672C236.342 316.504 236.582 317.472 236.582 318.576V324.624C236.582 325.728 236.342 326.704 235.862 327.552C235.398 328.384 234.726 329.032 233.846 329.496C232.982 329.96 231.982 330.192 230.846 330.192ZM230.846 328.728C232.062 328.728 233.038 328.36 233.774 327.624C234.51 326.888 234.878 325.912 234.878 324.696V318.552C234.878 317.336 234.51 316.36 233.774 315.624C233.038 314.872 232.062 314.496 230.846 314.496C229.646 314.496 228.678 314.872 227.942 315.624C227.206 316.36 226.838 317.336 226.838 318.552V324.696C226.838 325.912 227.206 326.888 227.942 327.624C228.678 328.36 229.646 328.728 230.846 328.728ZM250.384 330C250.24 330 250.144 329.944 250.096 329.832L246.568 322.392C246.552 322.344 246.52 322.32 246.472 322.32H242.392C242.328 322.32 242.296 322.352 242.296 322.416V329.76C242.296 329.92 242.216 330 242.056 330H240.832C240.672 330 240.592 329.92 240.592 329.76V313.44C240.592 313.28 240.672 313.2 240.832 313.2H247.048C248.424 313.2 249.536 313.632 250.384 314.496C251.232 315.344 251.656 316.456 251.656 317.832C251.656 318.952 251.352 319.904 250.744 320.688C250.136 321.472 249.312 321.976 248.272 322.2C248.208 322.232 248.192 322.272 248.224 322.32L251.824 329.712C251.84 329.744 251.848 329.784 251.848 329.832C251.848 329.944 251.784 330 251.656 330H250.384ZM242.392 314.688C242.328 314.688 242.296 314.72 242.296 314.784V320.856C242.296 320.92 242.328 320.952 242.392 320.952H246.856C247.784 320.952 248.536 320.664 249.112 320.088C249.688 319.512 249.976 318.76 249.976 317.832C249.976 316.904 249.688 316.152 249.112 315.576C248.536 314.984 247.784 314.688 246.856 314.688H242.392ZM266.138 330C265.994 330 265.898 329.936 265.85 329.808L264.89 326.784C264.874 326.736 264.842 326.712 264.794 326.712H257.618C257.57 326.712 257.538 326.736 257.522 326.784L256.562 329.808C256.514 329.936 256.418 330 256.274 330H254.978C254.802 330 254.738 329.912 254.786 329.736L260.09 313.392C260.138 313.264 260.234 313.2 260.378 313.2H262.01C262.154 313.2 262.25 313.264 262.298 313.392L267.626 329.736L267.65 329.832C267.65 329.944 267.578 330 267.434 330H266.138ZM258.002 325.2C257.986 325.232 257.986 325.264 258.002 325.296C258.034 325.312 258.066 325.32 258.098 325.32H264.29C264.322 325.32 264.346 325.312 264.362 325.296C264.394 325.264 264.402 325.232 264.386 325.2L261.266 315.408C261.25 315.376 261.226 315.36 261.194 315.36C261.162 315.36 261.138 315.376 261.122 315.408L258.002 325.2ZM279.314 313.2C279.474 313.2 279.554 313.28 279.554 313.44V314.472C279.554 314.632 279.474 314.712 279.314 314.712H274.61C274.546 314.712 274.514 314.744 274.514 314.808V329.76C274.514 329.92 274.434 330 274.274 330H273.05C272.89 330 272.81 329.92 272.81 329.76V314.808C272.81 314.744 272.778 314.712 272.714 314.712H268.202C268.042 314.712 267.962 314.632 267.962 314.472V313.44C267.962 313.28 268.042 313.2 268.202 313.2H279.314ZM293.722 314.448C293.722 314.608 293.642 314.688 293.482 314.688H284.65C284.586 314.688 284.554 314.72 284.554 314.784V320.712C284.554 320.776 284.586 320.808 284.65 320.808H290.842C291.002 320.808 291.082 320.888 291.082 321.048V322.056C291.082 322.216 291.002 322.296 290.842 322.296H284.65C284.586 322.296 284.554 322.328 284.554 322.392V328.416C284.554 328.48 284.586 328.512 284.65 328.512H293.482C293.642 328.512 293.722 328.592 293.722 328.752V329.76C293.722 329.92 293.642 330 293.482 330H283.09C282.93 330 282.85 329.92 282.85 329.76V313.44C282.85 313.28 282.93 313.2 283.09 313.2H293.482C293.642 313.2 293.722 313.28 293.722 313.44V314.448ZM178.104 343.448C178.104 343.608 178.024 343.688 177.864 343.688H169.056C168.992 343.688 168.96 343.72 168.96 343.784V349.712C168.96 349.776 168.992 349.808 169.056 349.808H175.224C175.384 349.808 175.464 349.888 175.464 350.048V351.056C175.464 351.216 175.384 351.296 175.224 351.296H169.056C168.992 351.296 168.96 351.328 168.96 351.392V358.76C168.96 358.92 168.88 359 168.72 359H167.496C167.336 359 167.256 358.92 167.256 358.76V342.44C167.256 342.28 167.336 342.2 167.496 342.2H177.864C178.024 342.2 178.104 342.28 178.104 342.44V343.448ZM181.137 359C180.977 359 180.897 358.92 180.897 358.76V342.44C180.897 342.28 180.977 342.2 181.137 342.2H182.361C182.521 342.2 182.601 342.28 182.601 342.44V358.76C182.601 358.92 182.521 359 182.361 359H181.137ZM197.116 342.44C197.116 342.28 197.196 342.2 197.356 342.2H198.58C198.74 342.2 198.82 342.28 198.82 342.44V358.76C198.82 358.92 198.74 359 198.58 359H197.38C197.268 359 197.172 358.944 197.092 358.832L188.908 345.512C188.892 345.464 188.868 345.448 188.836 345.464C188.804 345.464 188.788 345.488 188.788 345.536L188.812 358.76C188.812 358.92 188.732 359 188.572 359H187.348C187.188 359 187.108 358.92 187.108 358.76V342.44C187.108 342.28 187.188 342.2 187.348 342.2H188.548C188.66 342.2 188.756 342.256 188.836 342.368L197.02 355.688C197.036 355.736 197.06 355.76 197.092 355.76C197.124 355.744 197.14 355.712 197.14 355.664L197.116 342.44ZM213.286 359C213.142 359 213.046 358.936 212.998 358.808L212.038 355.784C212.022 355.736 211.99 355.712 211.942 355.712H204.766C204.718 355.712 204.686 355.736 204.67 355.784L203.71 358.808C203.662 358.936 203.566 359 203.422 359H202.126C201.95 359 201.886 358.912 201.934 358.736L207.238 342.392C207.286 342.264 207.382 342.2 207.526 342.2H209.158C209.302 342.2 209.398 342.264 209.446 342.392L214.774 358.736L214.798 358.832C214.798 358.944 214.726 359 214.582 359H213.286ZM205.15 354.2C205.134 354.232 205.134 354.264 205.15 354.296C205.182 354.312 205.214 354.32 205.246 354.32H211.438C211.47 354.32 211.494 354.312 211.51 354.296C211.542 354.264 211.55 354.232 211.534 354.2L208.414 344.408C208.398 344.376 208.374 344.36 208.342 344.36C208.31 344.36 208.286 344.376 208.27 344.408L205.15 354.2ZM227.912 342.44C227.912 342.28 227.992 342.2 228.152 342.2H229.376C229.536 342.2 229.616 342.28 229.616 342.44V358.76C229.616 358.92 229.536 359 229.376 359H228.176C228.064 359 227.968 358.944 227.888 358.832L219.704 345.512C219.688 345.464 219.664 345.448 219.632 345.464C219.6 345.464 219.584 345.488 219.584 345.536L219.608 358.76C219.608 358.92 219.528 359 219.368 359H218.144C217.984 359 217.904 358.92 217.904 358.76V342.44C217.904 342.28 217.984 342.2 218.144 342.2H219.344C219.456 342.2 219.552 342.256 219.632 342.368L227.816 355.688C227.832 355.736 227.856 355.76 227.888 355.76C227.92 355.744 227.936 355.712 227.936 355.664L227.912 342.44ZM239.235 359.216C238.115 359.216 237.131 359 236.283 358.568C235.435 358.12 234.771 357.496 234.291 356.696C233.827 355.88 233.595 354.944 233.595 353.888V347.288C233.595 346.248 233.827 345.328 234.291 344.528C234.771 343.728 235.435 343.112 236.283 342.68C237.131 342.232 238.115 342.008 239.235 342.008C240.355 342.008 241.339 342.224 242.187 342.656C243.035 343.088 243.691 343.696 244.155 344.48C244.635 345.264 244.875 346.168 244.875 347.192C244.875 347.272 244.851 347.336 244.803 347.384C244.755 347.432 244.699 347.456 244.635 347.456L243.411 347.528C243.251 347.528 243.171 347.456 243.171 347.312V347.24C243.171 346.104 242.811 345.2 242.091 344.528C241.371 343.84 240.419 343.496 239.235 343.496C238.051 343.496 237.099 343.84 236.379 344.528C235.659 345.216 235.299 346.12 235.299 347.24V353.96C235.299 355.08 235.659 355.984 236.379 356.672C237.099 357.36 238.051 357.704 239.235 357.704C240.419 357.704 241.371 357.368 242.091 356.696C242.811 356.008 243.171 355.096 243.171 353.96V353.912C243.171 353.768 243.251 353.696 243.411 353.696L244.635 353.768C244.795 353.768 244.875 353.84 244.875 353.984C244.875 355.024 244.635 355.944 244.155 356.744C243.691 357.528 243.035 358.136 242.187 358.568C241.339 359 240.355 359.216 239.235 359.216ZM259.573 343.448C259.573 343.608 259.493 343.688 259.333 343.688H250.501C250.437 343.688 250.405 343.72 250.405 343.784V349.712C250.405 349.776 250.437 349.808 250.501 349.808H256.693C256.853 349.808 256.933 349.888 256.933 350.048V351.056C256.933 351.216 256.853 351.296 256.693 351.296H250.501C250.437 351.296 250.405 351.328 250.405 351.392V357.416C250.405 357.48 250.437 357.512 250.501 357.512H259.333C259.493 357.512 259.573 357.592 259.573 357.752V358.76C259.573 358.92 259.493 359 259.333 359H248.941C248.781 359 248.701 358.92 248.701 358.76V342.44C248.701 342.28 248.781 342.2 248.941 342.2H259.333C259.493 342.2 259.573 342.28 259.573 342.44V343.448ZM177.384 371.2C177.544 371.2 177.624 371.28 177.624 371.44V372.472C177.624 372.632 177.544 372.712 177.384 372.712H172.68C172.616 372.712 172.584 372.744 172.584 372.808V387.76C172.584 387.92 172.504 388 172.344 388H171.12C170.96 388 170.88 387.92 170.88 387.76V372.808C170.88 372.744 170.848 372.712 170.784 372.712H166.272C166.112 372.712 166.032 372.632 166.032 372.472V371.44C166.032 371.28 166.112 371.2 166.272 371.2H177.384ZM190.712 388C190.568 388 190.472 387.944 190.424 387.832L186.896 380.392C186.88 380.344 186.848 380.32 186.8 380.32H182.72C182.656 380.32 182.624 380.352 182.624 380.416V387.76C182.624 387.92 182.544 388 182.384 388H181.16C181 388 180.92 387.92 180.92 387.76V371.44C180.92 371.28 181 371.2 181.16 371.2H187.376C188.752 371.2 189.864 371.632 190.712 372.496C191.56 373.344 191.984 374.456 191.984 375.832C191.984 376.952 191.68 377.904 191.072 378.688C190.464 379.472 189.64 379.976 188.6 380.2C188.536 380.232 188.52 380.272 188.552 380.32L192.152 387.712C192.168 387.744 192.176 387.784 192.176 387.832C192.176 387.944 192.112 388 191.984 388H190.712ZM182.72 372.688C182.656 372.688 182.624 372.72 182.624 372.784V378.856C182.624 378.92 182.656 378.952 182.72 378.952H187.184C188.112 378.952 188.864 378.664 189.44 378.088C190.016 377.512 190.304 376.76 190.304 375.832C190.304 374.904 190.016 374.152 189.44 373.576C188.864 372.984 188.112 372.688 187.184 372.688H182.72ZM206.466 388C206.322 388 206.226 387.936 206.178 387.808L205.218 384.784C205.202 384.736 205.17 384.712 205.122 384.712H197.946C197.898 384.712 197.866 384.736 197.85 384.784L196.89 387.808C196.842 387.936 196.746 388 196.602 388H195.306C195.13 388 195.066 387.912 195.114 387.736L200.418 371.392C200.466 371.264 200.562 371.2 200.706 371.2H202.338C202.482 371.2 202.578 371.264 202.626 371.392L207.954 387.736L207.978 387.832C207.978 387.944 207.906 388 207.762 388H206.466ZM198.33 383.2C198.314 383.232 198.314 383.264 198.33 383.296C198.362 383.312 198.394 383.32 198.426 383.32H204.618C204.65 383.32 204.674 383.312 204.69 383.296C204.722 383.264 204.73 383.232 204.714 383.2L201.594 373.408C201.578 373.376 201.554 373.36 201.522 373.36C201.49 373.36 201.466 373.376 201.45 373.408L198.33 383.2ZM211.324 388C211.164 388 211.084 387.92 211.084 387.76V371.44C211.084 371.28 211.164 371.2 211.324 371.2H212.548C212.708 371.2 212.788 371.28 212.788 371.44V387.76C212.788 387.92 212.708 388 212.548 388H211.324ZM227.303 371.44C227.303 371.28 227.383 371.2 227.543 371.2H228.767C228.927 371.2 229.007 371.28 229.007 371.44V387.76C229.007 387.92 228.927 388 228.767 388H227.567C227.455 388 227.359 387.944 227.279 387.832L219.095 374.512C219.079 374.464 219.055 374.448 219.023 374.464C218.991 374.464 218.975 374.488 218.975 374.536L218.999 387.76C218.999 387.92 218.919 388 218.759 388H217.535C217.375 388 217.295 387.92 217.295 387.76V371.44C217.295 371.28 217.375 371.2 217.535 371.2H218.735C218.847 371.2 218.943 371.256 219.023 371.368L227.207 384.688C227.223 384.736 227.247 384.76 227.279 384.76C227.311 384.744 227.327 384.712 227.327 384.664L227.303 371.44ZM233.754 388C233.594 388 233.514 387.92 233.514 387.76V371.44C233.514 371.28 233.594 371.2 233.754 371.2H234.978C235.138 371.2 235.218 371.28 235.218 371.44V387.76C235.218 387.92 235.138 388 234.978 388H233.754ZM249.733 371.44C249.733 371.28 249.813 371.2 249.973 371.2H251.197C251.357 371.2 251.437 371.28 251.437 371.44V387.76C251.437 387.92 251.357 388 251.197 388H249.997C249.885 388 249.789 387.944 249.709 387.832L241.525 374.512C241.509 374.464 241.485 374.448 241.453 374.464C241.421 374.464 241.405 374.488 241.405 374.536L241.429 387.76C241.429 387.92 241.349 388 241.189 388H239.965C239.805 388 239.725 387.92 239.725 387.76V371.44C239.725 371.28 239.805 371.2 239.965 371.2H241.165C241.277 371.2 241.373 371.256 241.453 371.368L249.637 384.688C249.653 384.736 249.677 384.76 249.709 384.76C249.741 384.744 249.757 384.712 249.757 384.664L249.733 371.44ZM261.056 388.192C259.936 388.192 258.952 387.976 258.104 387.544C257.256 387.096 256.592 386.472 256.112 385.672C255.648 384.872 255.416 383.952 255.416 382.912V376.288C255.416 375.248 255.648 374.328 256.112 373.528C256.592 372.728 257.256 372.112 258.104 371.68C258.952 371.232 259.936 371.008 261.056 371.008C262.16 371.008 263.136 371.224 263.984 371.656C264.848 372.088 265.512 372.696 265.976 373.48C266.44 374.248 266.672 375.12 266.672 376.096V376.408C266.672 376.568 266.592 376.648 266.432 376.648H265.208C265.048 376.648 264.968 376.568 264.968 376.408V376.12C264.968 375.048 264.608 374.176 263.888 373.504C263.184 372.832 262.24 372.496 261.056 372.496C259.872 372.496 258.92 372.84 258.2 373.528C257.48 374.216 257.12 375.12 257.12 376.24V382.96C257.12 384.08 257.488 384.984 258.224 385.672C258.96 386.36 259.928 386.704 261.128 386.704C262.296 386.704 263.224 386.384 263.912 385.744C264.616 385.104 264.968 384.248 264.968 383.176V380.992C264.968 380.928 264.936 380.896 264.872 380.896H261.344C261.184 380.896 261.104 380.816 261.104 380.656V379.648C261.104 379.488 261.184 379.408 261.344 379.408H266.432C266.592 379.408 266.672 379.488 266.672 379.648V382.744C266.672 384.456 266.16 385.792 265.136 386.752C264.128 387.712 262.768 388.192 261.056 388.192Z" fill="white"/>
<path d="M425 275.67V290M425 212.17V226.5M425 233.17V247.5M425 254.67V269M425 192V206.33M425 124V138.33M425 103V117.33M425 315.17V329.5M425 167V181.33M425 334.669V348.999M425 295.67V310M425 143.5V157.83M425 62V76.3302M425 82.1698V96.5" stroke="white" stroke-width="2"/>
<path d="M447.208 18.624C447.208 18.784 447.144 18.928 447.016 19.056C446.92 19.152 446.792 19.2 446.632 19.2H430.312C430.152 19.2 430.072 19.28 430.072 19.44V28.416C430.072 28.576 430.152 28.656 430.312 28.656H441.304C441.464 28.656 441.592 28.72 441.688 28.848C441.816 28.944 441.88 29.072 441.88 29.232V32.88C441.88 33.04 441.816 33.184 441.688 33.312C441.592 33.408 441.464 33.456 441.304 33.456H430.312C430.152 33.456 430.072 33.536 430.072 33.696V47.424C430.072 47.584 430.008 47.728 429.88 47.856C429.784 47.952 429.656 48 429.496 48H425.08C424.92 48 424.776 47.952 424.648 47.856C424.552 47.728 424.504 47.584 424.504 47.424V14.976C424.504 14.816 424.552 14.688 424.648 14.592C424.776 14.464 424.92 14.4 425.08 14.4H446.632C446.792 14.4 446.92 14.464 447.016 14.592C447.144 14.688 447.208 14.816 447.208 14.976V18.624ZM454.191 20.112C453.199 20.112 452.383 19.792 451.743 19.152C451.103 18.512 450.783 17.696 450.783 16.704C450.783 15.712 451.103 14.896 451.743 14.256C452.383 13.616 453.199 13.296 454.191 13.296C455.183 13.296 455.999 13.616 456.639 14.256C457.279 14.896 457.599 15.712 457.599 16.704C457.599 17.696 457.279 18.512 456.639 19.152C455.999 19.792 455.183 20.112 454.191 20.112ZM451.887 48C451.727 48 451.583 47.952 451.455 47.856C451.359 47.728 451.311 47.584 451.311 47.424V24C451.311 23.84 451.359 23.712 451.455 23.616C451.583 23.488 451.727 23.424 451.887 23.424H456.303C456.463 23.424 456.591 23.488 456.687 23.616C456.815 23.712 456.879 23.84 456.879 24V47.424C456.879 47.584 456.815 47.728 456.687 47.856C456.591 47.952 456.463 48 456.303 48H451.887ZM475.017 23.088C477.609 23.088 479.673 23.856 481.209 25.392C482.777 26.928 483.561 29.024 483.561 31.68V47.424C483.561 47.584 483.497 47.728 483.369 47.856C483.273 47.952 483.145 48 482.985 48H478.569C478.409 48 478.265 47.952 478.137 47.856C478.041 47.728 477.993 47.584 477.993 47.424V32.832C477.993 31.36 477.577 30.176 476.745 29.28C475.913 28.352 474.809 27.888 473.433 27.888C472.057 27.888 470.937 28.336 470.073 29.232C469.241 30.128 468.825 31.312 468.825 32.784V47.424C468.825 47.584 468.761 47.728 468.633 47.856C468.537 47.952 468.409 48 468.249 48H463.833C463.673 48 463.529 47.952 463.401 47.856C463.305 47.728 463.257 47.584 463.257 47.424V24.048C463.257 23.888 463.305 23.76 463.401 23.664C463.529 23.536 463.673 23.472 463.833 23.472H468.249C468.409 23.472 468.537 23.536 468.633 23.664C468.761 23.76 468.825 23.888 468.825 24.048V25.584C468.825 25.68 468.857 25.744 468.921 25.776C468.985 25.808 469.033 25.776 469.065 25.68C470.377 23.952 472.361 23.088 475.017 23.088ZM498.487 48.288C496.471 48.288 494.695 48 493.159 47.424C491.655 46.816 490.487 46 489.655 44.976C488.823 43.92 488.407 42.752 488.407 41.472V41.04C488.407 40.88 488.455 40.752 488.551 40.656C488.679 40.528 488.823 40.464 488.983 40.464H493.207C493.367 40.464 493.495 40.528 493.591 40.656C493.719 40.752 493.783 40.88 493.783 41.04V41.136C493.783 41.936 494.215 42.64 495.079 43.248C495.975 43.824 497.095 44.112 498.439 44.112C499.719 44.112 500.759 43.856 501.559 43.344C502.359 42.8 502.759 42.128 502.759 41.328C502.759 40.592 502.423 40.048 501.751 39.696C501.111 39.312 500.055 38.912 498.583 38.496L496.759 37.92C495.127 37.44 493.751 36.928 492.631 36.384C491.511 35.84 490.567 35.104 489.799 34.176C489.031 33.216 488.647 32 488.647 30.528C488.647 28.288 489.527 26.512 491.287 25.2C493.047 23.856 495.367 23.184 498.247 23.184C500.199 23.184 501.911 23.504 503.383 24.144C504.855 24.752 505.991 25.616 506.791 26.736C507.591 27.824 507.991 29.072 507.991 30.48C507.991 30.64 507.927 30.784 507.799 30.912C507.703 31.008 507.575 31.056 507.415 31.056H503.335C503.175 31.056 503.031 31.008 502.903 30.912C502.807 30.784 502.759 30.64 502.759 30.48C502.759 29.648 502.343 28.96 501.511 28.416C500.711 27.84 499.607 27.552 498.199 27.552C496.951 27.552 495.927 27.792 495.127 28.272C494.359 28.72 493.975 29.36 493.975 30.192C493.975 30.96 494.343 31.552 495.079 31.968C495.847 32.352 497.111 32.784 498.871 33.264L499.927 33.552C501.623 34.064 503.047 34.592 504.199 35.136C505.351 35.648 506.327 36.384 507.127 37.344C507.927 38.272 508.327 39.488 508.327 40.992C508.327 43.264 507.431 45.056 505.639 46.368C503.847 47.648 501.463 48.288 498.487 48.288ZM516.207 20.112C515.215 20.112 514.399 19.792 513.759 19.152C513.119 18.512 512.799 17.696 512.799 16.704C512.799 15.712 513.119 14.896 513.759 14.256C514.399 13.616 515.215 13.296 516.207 13.296C517.199 13.296 518.015 13.616 518.655 14.256C519.295 14.896 519.615 15.712 519.615 16.704C519.615 17.696 519.295 18.512 518.655 19.152C518.015 19.792 517.199 20.112 516.207 20.112ZM513.903 48C513.743 48 513.599 47.952 513.471 47.856C513.375 47.728 513.327 47.584 513.327 47.424V24C513.327 23.84 513.375 23.712 513.471 23.616C513.599 23.488 513.743 23.424 513.903 23.424H518.319C518.479 23.424 518.607 23.488 518.703 23.616C518.831 23.712 518.895 23.84 518.895 24V47.424C518.895 47.584 518.831 47.728 518.703 47.856C518.607 47.952 518.479 48 518.319 48H513.903ZM551.529 23.088C553.993 23.088 555.913 23.84 557.289 25.344C558.697 26.816 559.401 28.88 559.401 31.536V47.424C559.401 47.584 559.337 47.728 559.209 47.856C559.113 47.952 558.985 48 558.825 48H554.457C554.297 48 554.153 47.952 554.025 47.856C553.929 47.728 553.881 47.584 553.881 47.424V32.688C553.881 31.216 553.481 30.048 552.681 29.184C551.913 28.32 550.873 27.888 549.561 27.888C548.249 27.888 547.177 28.32 546.345 29.184C545.513 30.048 545.097 31.2 545.097 32.64V47.424C545.097 47.584 545.033 47.728 544.905 47.856C544.809 47.952 544.681 48 544.521 48H540.153C539.993 48 539.849 47.952 539.721 47.856C539.625 47.728 539.577 47.584 539.577 47.424V32.688C539.577 31.216 539.177 30.048 538.377 29.184C537.577 28.32 536.521 27.888 535.209 27.888C533.993 27.888 532.985 28.24 532.185 28.944C531.417 29.648 530.969 30.608 530.841 31.824V47.424C530.841 47.584 530.777 47.728 530.649 47.856C530.553 47.952 530.425 48 530.265 48H525.849C525.689 48 525.545 47.952 525.417 47.856C525.321 47.728 525.273 47.584 525.273 47.424V24.048C525.273 23.888 525.321 23.76 525.417 23.664C525.545 23.536 525.689 23.472 525.849 23.472H530.265C530.425 23.472 530.553 23.536 530.649 23.664C530.777 23.76 530.841 23.888 530.841 24.048V25.632C530.841 25.728 530.873 25.792 530.937 25.824C531.001 25.856 531.065 25.824 531.129 25.728C531.833 24.832 532.697 24.176 533.721 23.76C534.777 23.312 535.945 23.088 537.225 23.088C538.793 23.088 540.169 23.408 541.353 24.048C542.537 24.688 543.449 25.616 544.089 26.832C544.185 26.96 544.297 26.96 544.425 26.832C545.129 25.552 546.105 24.608 547.353 24C548.601 23.392 549.993 23.088 551.529 23.088ZM575.106 48.384C572.642 48.384 570.514 47.76 568.722 46.512C566.93 45.232 565.682 43.52 564.978 41.376C564.466 39.936 564.21 38.016 564.21 35.616C564.21 33.312 564.466 31.424 564.978 29.952C565.65 27.84 566.882 26.176 568.674 24.96C570.498 23.712 572.642 23.088 575.106 23.088C577.602 23.088 579.778 23.712 581.634 24.96C583.49 26.208 584.722 27.776 585.33 29.664C585.49 30.176 585.602 30.688 585.666 31.2V31.296C585.666 31.616 585.49 31.808 585.138 31.872L580.818 32.496H580.722C580.434 32.496 580.242 32.336 580.146 32.016C580.146 31.856 580.13 31.728 580.098 31.632C580.034 31.376 579.97 31.152 579.906 30.96C579.618 30.064 579.042 29.328 578.178 28.752C577.314 28.176 576.29 27.888 575.106 27.888C573.89 27.888 572.85 28.208 571.986 28.848C571.154 29.456 570.594 30.304 570.306 31.392C569.986 32.416 569.826 33.84 569.826 35.664C569.826 37.424 569.97 38.848 570.258 39.936C570.578 41.056 571.154 41.952 571.986 42.624C572.818 43.264 573.858 43.584 575.106 43.584C576.322 43.584 577.362 43.28 578.226 42.672C579.122 42.032 579.698 41.184 579.954 40.128C579.986 40.064 580.002 39.984 580.002 39.888C580.034 39.856 580.05 39.808 580.05 39.744C580.146 39.36 580.37 39.2 580.722 39.264L585.042 39.936C585.202 39.968 585.33 40.048 585.426 40.176C585.554 40.272 585.602 40.416 585.57 40.608C585.474 41.12 585.394 41.488 585.33 41.712C584.722 43.76 583.49 45.392 581.634 46.608C579.778 47.792 577.602 48.384 575.106 48.384ZM600.564 48.384C598.036 48.384 595.86 47.744 594.036 46.464C592.244 45.184 590.98 43.408 590.244 41.136C589.7 39.408 589.428 37.584 589.428 35.664C589.428 33.616 589.684 31.792 590.196 30.192C590.932 27.952 592.212 26.208 594.036 24.96C595.86 23.712 598.052 23.088 600.612 23.088C603.044 23.088 605.14 23.712 606.9 24.96C608.692 26.208 609.956 27.936 610.692 30.144C611.268 31.68 611.556 33.504 611.556 35.616C611.556 37.632 611.284 39.456 610.74 41.088C610.004 43.36 608.74 45.152 606.948 46.464C605.156 47.744 603.028 48.384 600.564 48.384ZM600.564 43.584C601.748 43.584 602.756 43.248 603.588 42.576C604.452 41.904 605.076 40.96 605.46 39.744C605.78 38.688 605.94 37.344 605.94 35.712C605.94 33.984 605.78 32.64 605.46 31.68C605.108 30.464 604.5 29.536 603.636 28.896C602.772 28.224 601.716 27.888 600.468 27.888C599.284 27.888 598.26 28.224 597.396 28.896C596.532 29.536 595.908 30.464 595.524 31.68C595.204 32.8 595.044 34.144 595.044 35.712C595.044 37.28 595.204 38.624 595.524 39.744C595.876 40.96 596.484 41.904 597.348 42.576C598.244 43.248 599.316 43.584 600.564 43.584Z" fill="white"/>
</svg>
