<svg width="867" height="603" viewBox="0 0 867 603" fill="none" xmlns="http://www.w3.org/2000/svg">
<circle cx="248.5" cy="354.5" r="242.5" fill="white" fill-opacity="0.4" stroke="white" stroke-width="12"/>
<circle cx="618.5" cy="354.5" r="242.5" fill="#67B3F9" fill-opacity="0.4" stroke="#9CCCF9" stroke-width="12"/>
<mask id="path-3-inside-1" fill="white">
<path fill-rule="evenodd" clip-rule="evenodd" d="M433.5 519.834C472.982 475.839 497 417.683 497 353.917C497 290.151 472.982 231.994 433.5 188C394.018 231.994 370 290.151 370 353.917C370 417.683 394.018 475.839 433.5 519.834Z"/>
</mask>
<path fill-rule="evenodd" clip-rule="evenodd" d="M433.5 519.834C472.982 475.839 497 417.683 497 353.917C497 290.151 472.982 231.994 433.5 188C394.018 231.994 370 290.151 370 353.917C370 417.683 394.018 475.839 433.5 519.834Z" fill="#9E97EC" fill-opacity="0.4"/>
<path d="M433.5 519.834L424.569 527.849L433.5 537.8L442.431 527.849L433.5 519.834ZM433.5 188L442.431 179.985L433.5 170.034L424.569 179.985L433.5 188ZM485 353.917C485 414.611 462.152 469.941 424.569 511.819L442.431 527.849C483.813 481.738 509 420.755 509 353.917H485ZM424.569 196.015C462.152 237.893 485 293.222 485 353.917H509C509 287.079 483.813 226.096 442.431 179.985L424.569 196.015ZM382 353.917C382 293.222 404.848 237.893 442.431 196.015L424.569 179.985C383.187 226.096 358 287.079 358 353.917H382ZM442.431 511.819C404.848 469.941 382 414.611 382 353.917H358C358 420.755 383.187 481.738 424.569 527.849L442.431 511.819Z" fill="#AAB3F2" mask="url(#path-3-inside-1)"/>
<path d="M568.056 353C567.888 353 567.776 352.935 567.72 352.804L563.604 344.124C563.585 344.068 563.548 344.04 563.492 344.04H558.732C558.657 344.04 558.62 344.077 558.62 344.152V352.72C558.62 352.907 558.527 353 558.34 353H556.912C556.725 353 556.632 352.907 556.632 352.72V333.68C556.632 333.493 556.725 333.4 556.912 333.4H564.164C565.769 333.4 567.067 333.904 568.056 334.912C569.045 335.901 569.54 337.199 569.54 338.804C569.54 340.111 569.185 341.221 568.476 342.136C567.767 343.051 566.805 343.639 565.592 343.9C565.517 343.937 565.499 343.984 565.536 344.04L569.736 352.664C569.755 352.701 569.764 352.748 569.764 352.804C569.764 352.935 569.689 353 569.54 353H568.056ZM558.732 335.136C558.657 335.136 558.62 335.173 558.62 335.248V342.332C558.62 342.407 558.657 342.444 558.732 342.444H563.94C565.023 342.444 565.9 342.108 566.572 341.436C567.244 340.764 567.58 339.887 567.58 338.804C567.58 337.721 567.244 336.844 566.572 336.172C565.9 335.481 565.023 335.136 563.94 335.136H558.732ZM586.461 334.856C586.461 335.043 586.367 335.136 586.181 335.136H575.877C575.802 335.136 575.765 335.173 575.765 335.248V342.164C575.765 342.239 575.802 342.276 575.877 342.276H583.101C583.287 342.276 583.381 342.369 583.381 342.556V343.732C583.381 343.919 583.287 344.012 583.101 344.012H575.877C575.802 344.012 575.765 344.049 575.765 344.124V351.152C575.765 351.227 575.802 351.264 575.877 351.264H586.181C586.367 351.264 586.461 351.357 586.461 351.544V352.72C586.461 352.907 586.367 353 586.181 353H574.057C573.87 353 573.777 352.907 573.777 352.72V333.68C573.777 333.493 573.87 333.4 574.057 333.4H586.181C586.367 333.4 586.461 333.493 586.461 333.68V334.856ZM602.35 353C602.182 353 602.07 352.925 602.014 352.776L600.894 349.248C600.875 349.192 600.838 349.164 600.782 349.164H592.41C592.354 349.164 592.316 349.192 592.298 349.248L591.178 352.776C591.122 352.925 591.01 353 590.842 353H589.33C589.124 353 589.05 352.897 589.106 352.692L595.294 333.624C595.35 333.475 595.462 333.4 595.63 333.4H597.534C597.702 333.4 597.814 333.475 597.87 333.624L604.086 352.692L604.114 352.804C604.114 352.935 604.03 353 603.862 353H602.35ZM592.858 347.4C592.839 347.437 592.839 347.475 592.858 347.512C592.895 347.531 592.932 347.54 592.97 347.54H600.194C600.231 347.54 600.259 347.531 600.278 347.512C600.315 347.475 600.324 347.437 600.306 347.4L596.666 335.976C596.647 335.939 596.619 335.92 596.582 335.92C596.544 335.92 596.516 335.939 596.498 335.976L592.858 347.4ZM608.017 353C607.831 353 607.737 352.907 607.737 352.72V333.68C607.737 333.493 607.831 333.4 608.017 333.4H609.445C609.632 333.4 609.725 333.493 609.725 333.68V351.152C609.725 351.227 609.763 351.264 609.837 351.264H619.721C619.908 351.264 620.001 351.357 620.001 351.544V352.72C620.001 352.907 619.908 353 619.721 353H608.017ZM622.392 345.16C622.205 345.16 622.112 345.067 622.112 344.88V343.704C622.112 343.517 622.205 343.424 622.392 343.424H630.68C630.866 343.424 630.96 343.517 630.96 343.704V344.88C630.96 345.067 630.866 345.16 630.68 345.16H622.392ZM634.951 353C634.764 353 634.671 352.907 634.671 352.72V333.68C634.671 333.493 634.764 333.4 634.951 333.4H636.379C636.566 333.4 636.659 333.493 636.659 333.68V351.152C636.659 351.227 636.696 351.264 636.771 351.264H646.655C646.842 351.264 646.935 351.357 646.935 351.544V352.72C646.935 352.907 646.842 353 646.655 353H634.951ZM650.865 353C650.678 353 650.585 352.907 650.585 352.72V333.68C650.585 333.493 650.678 333.4 650.865 333.4H652.293C652.48 333.4 652.573 333.493 652.573 333.68V352.72C652.573 352.907 652.48 353 652.293 353H650.865ZM670.487 334.856C670.487 335.043 670.394 335.136 670.207 335.136H659.931C659.857 335.136 659.819 335.173 659.819 335.248V342.164C659.819 342.239 659.857 342.276 659.931 342.276H667.127C667.314 342.276 667.407 342.369 667.407 342.556V343.732C667.407 343.919 667.314 344.012 667.127 344.012H659.931C659.857 344.012 659.819 344.049 659.819 344.124V352.72C659.819 352.907 659.726 353 659.539 353H658.111C657.925 353 657.831 352.907 657.831 352.72V333.68C657.831 333.493 657.925 333.4 658.111 333.4H670.207C670.394 333.4 670.487 333.493 670.487 333.68V334.856ZM686.429 334.856C686.429 335.043 686.336 335.136 686.149 335.136H675.845C675.771 335.136 675.733 335.173 675.733 335.248V342.164C675.733 342.239 675.771 342.276 675.845 342.276H683.069C683.256 342.276 683.349 342.369 683.349 342.556V343.732C683.349 343.919 683.256 344.012 683.069 344.012H675.845C675.771 344.012 675.733 344.049 675.733 344.124V351.152C675.733 351.227 675.771 351.264 675.845 351.264H686.149C686.336 351.264 686.429 351.357 686.429 351.544V352.72C686.429 352.907 686.336 353 686.149 353H674.025C673.839 353 673.745 352.907 673.745 352.72V333.68C673.745 333.493 673.839 333.4 674.025 333.4H686.149C686.336 333.4 686.429 333.493 686.429 333.68V334.856ZM562.288 387.224C560.179 387.224 558.508 386.748 557.276 385.796C556.063 384.844 555.456 383.575 555.456 381.988V381.12C555.456 380.933 555.549 380.84 555.736 380.84H557.108C557.295 380.84 557.388 380.933 557.388 381.12V381.876C557.388 382.959 557.836 383.836 558.732 384.508C559.628 385.161 560.869 385.488 562.456 385.488C563.893 385.488 564.985 385.189 565.732 384.592C566.479 383.976 566.852 383.164 566.852 382.156C566.852 381.503 566.675 380.943 566.32 380.476C565.984 380.009 565.452 379.571 564.724 379.16C564.015 378.749 563.007 378.273 561.7 377.732C560.3 377.172 559.208 376.687 558.424 376.276C557.659 375.847 557.033 375.305 556.548 374.652C556.081 373.98 555.848 373.14 555.848 372.132C555.848 370.564 556.389 369.351 557.472 368.492C558.573 367.615 560.076 367.176 561.98 367.176C564.052 367.176 565.685 367.661 566.88 368.632C568.075 369.603 568.672 370.891 568.672 372.496V373.112C568.672 373.299 568.579 373.392 568.392 373.392H566.992C566.805 373.392 566.712 373.299 566.712 373.112V372.608C566.712 371.525 566.283 370.639 565.424 369.948C564.584 369.257 563.408 368.912 561.896 368.912C560.571 368.912 559.553 369.183 558.844 369.724C558.135 370.265 557.78 371.049 557.78 372.076C557.78 372.748 557.948 373.308 558.284 373.756C558.639 374.185 559.133 374.568 559.768 374.904C560.421 375.221 561.42 375.641 562.764 376.164C564.127 376.724 565.219 377.247 566.04 377.732C566.88 378.217 567.552 378.815 568.056 379.524C568.579 380.215 568.84 381.064 568.84 382.072C568.84 383.64 568.261 384.891 567.104 385.824C565.947 386.757 564.341 387.224 562.288 387.224ZM573.264 387C573.077 387 572.984 386.907 572.984 386.72V367.68C572.984 367.493 573.077 367.4 573.264 367.4H574.692C574.878 367.4 574.972 367.493 574.972 367.68V386.72C574.972 386.907 574.878 387 574.692 387H573.264ZM592.942 367.596C593.035 367.465 593.147 367.4 593.278 367.4H594.734C594.92 367.4 595.014 367.493 595.014 367.68V386.72C595.014 386.907 594.92 387 594.734 387H593.306C593.119 387 593.026 386.907 593.026 386.72V371.152C593.026 371.096 593.007 371.059 592.97 371.04C592.932 371.021 592.904 371.04 592.886 371.096L588.322 378.096C588.228 378.227 588.116 378.292 587.986 378.292H587.258C587.127 378.292 587.015 378.236 586.922 378.124L582.358 371.18C582.339 371.124 582.311 371.105 582.274 371.124C582.236 371.143 582.218 371.18 582.218 371.236V386.72C582.218 386.907 582.124 387 581.938 387H580.51C580.323 387 580.23 386.907 580.23 386.72V367.68C580.23 367.493 580.323 367.4 580.51 367.4H581.966C582.115 367.4 582.227 367.456 582.302 367.568L587.566 375.548C587.584 375.567 587.612 375.576 587.65 375.576C587.687 375.576 587.715 375.567 587.734 375.548L592.942 367.596ZM606.685 387.224C605.379 387.224 604.221 386.963 603.213 386.44C602.205 385.917 601.421 385.189 600.861 384.256C600.301 383.304 600.021 382.203 600.021 380.952V367.68C600.021 367.493 600.115 367.4 600.301 367.4H601.729C601.916 367.4 602.009 367.493 602.009 367.68V381.008C602.009 382.333 602.439 383.416 603.297 384.256C604.156 385.077 605.285 385.488 606.685 385.488C608.085 385.488 609.215 385.077 610.073 384.256C610.932 383.416 611.361 382.333 611.361 381.008V367.68C611.361 367.493 611.455 367.4 611.641 367.4H613.069C613.256 367.4 613.349 367.493 613.349 367.68V380.952C613.349 382.203 613.069 383.304 612.509 384.256C611.968 385.189 611.193 385.917 610.185 386.44C609.177 386.963 608.011 387.224 606.685 387.224ZM618.682 387C618.495 387 618.402 386.907 618.402 386.72V367.68C618.402 367.493 618.495 367.4 618.682 367.4H620.11C620.296 367.4 620.39 367.493 620.39 367.68V385.152C620.39 385.227 620.427 385.264 620.502 385.264H630.386C630.572 385.264 630.666 385.357 630.666 385.544V386.72C630.666 386.907 630.572 387 630.386 387H618.682ZM647.111 387C646.943 387 646.831 386.925 646.775 386.776L645.655 383.248C645.637 383.192 645.599 383.164 645.543 383.164H637.171C637.115 383.164 637.078 383.192 637.059 383.248L635.939 386.776C635.883 386.925 635.771 387 635.603 387H634.091C633.886 387 633.811 386.897 633.867 386.692L640.055 367.624C640.111 367.475 640.223 367.4 640.391 367.4H642.295C642.463 367.4 642.575 367.475 642.631 367.624L648.847 386.692L648.875 386.804C648.875 386.935 648.791 387 648.623 387H647.111ZM637.619 381.4C637.601 381.437 637.601 381.475 637.619 381.512C637.657 381.531 637.694 381.54 637.731 381.54H644.955C644.993 381.54 645.021 381.531 645.039 381.512C645.077 381.475 645.086 381.437 645.067 381.4L641.427 369.976C641.409 369.939 641.381 369.92 641.343 369.92C641.306 369.92 641.278 369.939 641.259 369.976L637.619 381.4ZM662.483 367.4C662.67 367.4 662.763 367.493 662.763 367.68V368.884C662.763 369.071 662.67 369.164 662.483 369.164H656.995C656.92 369.164 656.883 369.201 656.883 369.276V386.72C656.883 386.907 656.79 387 656.603 387H655.175C654.988 387 654.895 386.907 654.895 386.72V369.276C654.895 369.201 654.858 369.164 654.783 369.164H649.519C649.332 369.164 649.239 369.071 649.239 368.884V367.68C649.239 367.493 649.332 367.4 649.519 367.4H662.483ZM666.889 387C666.702 387 666.609 386.907 666.609 386.72V367.68C666.609 367.493 666.702 367.4 666.889 367.4H668.317C668.503 367.4 668.597 367.493 668.597 367.68V386.72C668.597 386.907 668.503 387 668.317 387H666.889ZM679.903 387.224C678.577 387.224 677.411 386.953 676.403 386.412C675.395 385.871 674.611 385.115 674.051 384.144C673.509 383.155 673.239 382.016 673.239 380.728V373.672C673.239 372.384 673.509 371.255 674.051 370.284C674.611 369.295 675.395 368.529 676.403 367.988C677.411 367.447 678.577 367.176 679.903 367.176C681.228 367.176 682.395 367.447 683.403 367.988C684.429 368.529 685.213 369.295 685.755 370.284C686.315 371.255 686.595 372.384 686.595 373.672V380.728C686.595 382.016 686.315 383.155 685.755 384.144C685.213 385.115 684.429 385.871 683.403 386.412C682.395 386.953 681.228 387.224 679.903 387.224ZM679.903 385.516C681.321 385.516 682.46 385.087 683.319 384.228C684.177 383.369 684.607 382.231 684.607 380.812V373.644C684.607 372.225 684.177 371.087 683.319 370.228C682.46 369.351 681.321 368.912 679.903 368.912C678.503 368.912 677.373 369.351 676.515 370.228C675.656 371.087 675.227 372.225 675.227 373.644V380.812C675.227 382.231 675.656 383.369 676.515 384.228C677.373 385.087 678.503 385.516 679.903 385.516ZM702.949 367.68C702.949 367.493 703.042 367.4 703.229 367.4H704.657C704.843 367.4 704.937 367.493 704.937 367.68V386.72C704.937 386.907 704.843 387 704.657 387H703.257C703.126 387 703.014 386.935 702.921 386.804L693.373 371.264C693.354 371.208 693.326 371.189 693.289 371.208C693.251 371.208 693.233 371.236 693.233 371.292L693.261 386.72C693.261 386.907 693.167 387 692.981 387H691.553C691.366 387 691.273 386.907 691.273 386.72V367.68C691.273 367.493 691.366 367.4 691.553 367.4H692.953C693.083 367.4 693.195 367.465 693.289 367.596L702.837 383.136C702.855 383.192 702.883 383.22 702.921 383.22C702.958 383.201 702.977 383.164 702.977 383.108L702.949 367.68ZM715.851 387.224C713.741 387.224 712.071 386.748 710.839 385.796C709.625 384.844 709.019 383.575 709.019 381.988V381.12C709.019 380.933 709.112 380.84 709.299 380.84H710.671C710.857 380.84 710.951 380.933 710.951 381.12V381.876C710.951 382.959 711.399 383.836 712.295 384.508C713.191 385.161 714.432 385.488 716.019 385.488C717.456 385.488 718.548 385.189 719.295 384.592C720.041 383.976 720.415 383.164 720.415 382.156C720.415 381.503 720.237 380.943 719.883 380.476C719.547 380.009 719.015 379.571 718.287 379.16C717.577 378.749 716.569 378.273 715.263 377.732C713.863 377.172 712.771 376.687 711.987 376.276C711.221 375.847 710.596 375.305 710.111 374.652C709.644 373.98 709.41 373.14 709.41 372.132C709.41 370.564 709.952 369.351 711.035 368.492C712.136 367.615 713.639 367.176 715.543 367.176C717.615 367.176 719.248 367.661 720.443 368.632C721.637 369.603 722.235 370.891 722.235 372.496V373.112C722.235 373.299 722.141 373.392 721.954 373.392H720.555C720.368 373.392 720.275 373.299 720.275 373.112V372.608C720.275 371.525 719.845 370.639 718.987 369.948C718.147 369.257 716.971 368.912 715.459 368.912C714.133 368.912 713.116 369.183 712.407 369.724C711.697 370.265 711.343 371.049 711.343 372.076C711.343 372.748 711.511 373.308 711.847 373.756C712.201 374.185 712.696 374.568 713.331 374.904C713.984 375.221 714.983 375.641 716.327 376.164C717.689 376.724 718.781 377.247 719.603 377.732C720.443 378.217 721.115 378.815 721.619 379.524C722.141 380.215 722.403 381.064 722.403 382.072C722.403 383.64 721.824 384.891 720.667 385.824C719.509 386.757 717.904 387.224 715.851 387.224Z" fill="white"/>
<path d="M173.596 334.252C172.289 334.252 171.141 334 170.152 333.496C169.163 332.973 168.388 332.245 167.828 331.312C167.287 330.36 167.016 329.268 167.016 328.036V320.336C167.016 319.123 167.287 318.049 167.828 317.116C168.388 316.183 169.163 315.464 170.152 314.96C171.141 314.437 172.289 314.176 173.596 314.176C174.903 314.176 176.051 314.428 177.04 314.932C178.029 315.436 178.795 316.145 179.336 317.06C179.896 317.975 180.176 319.029 180.176 320.224C180.176 320.317 180.148 320.392 180.092 320.448C180.036 320.504 179.971 320.532 179.896 320.532L178.468 320.616C178.281 320.616 178.188 320.532 178.188 320.364V320.28C178.188 318.955 177.768 317.9 176.928 317.116C176.088 316.313 174.977 315.912 173.596 315.912C172.215 315.912 171.104 316.313 170.264 317.116C169.424 317.919 169.004 318.973 169.004 320.28V328.12C169.004 329.427 169.424 330.481 170.264 331.284C171.104 332.087 172.215 332.488 173.596 332.488C174.977 332.488 176.088 332.096 176.928 331.312C177.768 330.509 178.188 329.445 178.188 328.12V328.064C178.188 327.896 178.281 327.812 178.468 327.812L179.896 327.896C180.083 327.896 180.176 327.98 180.176 328.148C180.176 329.361 179.896 330.435 179.336 331.368C178.795 332.283 178.029 332.992 177.04 333.496C176.051 334 174.903 334.252 173.596 334.252ZM190.688 334.224C189.362 334.224 188.196 333.953 187.188 333.412C186.18 332.871 185.396 332.115 184.836 331.144C184.294 330.155 184.024 329.016 184.024 327.728V320.672C184.024 319.384 184.294 318.255 184.836 317.284C185.396 316.295 186.18 315.529 187.188 314.988C188.196 314.447 189.362 314.176 190.688 314.176C192.013 314.176 193.18 314.447 194.188 314.988C195.214 315.529 195.998 316.295 196.54 317.284C197.1 318.255 197.38 319.384 197.38 320.672V327.728C197.38 329.016 197.1 330.155 196.54 331.144C195.998 332.115 195.214 332.871 194.188 333.412C193.18 333.953 192.013 334.224 190.688 334.224ZM190.688 332.516C192.106 332.516 193.245 332.087 194.104 331.228C194.962 330.369 195.392 329.231 195.392 327.812V320.644C195.392 319.225 194.962 318.087 194.104 317.228C193.245 316.351 192.106 315.912 190.688 315.912C189.288 315.912 188.158 316.351 187.3 317.228C186.441 318.087 186.012 319.225 186.012 320.644V327.812C186.012 329.231 186.441 330.369 187.3 331.228C188.158 332.087 189.288 332.516 190.688 332.516ZM213.482 334C213.314 334 213.202 333.935 213.146 333.804L209.03 325.124C209.011 325.068 208.974 325.04 208.918 325.04H204.158C204.083 325.04 204.046 325.077 204.046 325.152V333.72C204.046 333.907 203.952 334 203.766 334H202.338C202.151 334 202.058 333.907 202.058 333.72V314.68C202.058 314.493 202.151 314.4 202.338 314.4H209.59C211.195 314.4 212.492 314.904 213.482 315.912C214.471 316.901 214.966 318.199 214.966 319.804C214.966 321.111 214.611 322.221 213.902 323.136C213.192 324.051 212.231 324.639 211.018 324.9C210.943 324.937 210.924 324.984 210.962 325.04L215.162 333.664C215.18 333.701 215.19 333.748 215.19 333.804C215.19 333.935 215.115 334 214.966 334H213.482ZM204.158 316.136C204.083 316.136 204.046 316.173 204.046 316.248V323.332C204.046 323.407 204.083 323.444 204.158 323.444H209.366C210.448 323.444 211.326 323.108 211.998 322.436C212.67 321.764 213.006 320.887 213.006 319.804C213.006 318.721 212.67 317.844 211.998 317.172C211.326 316.481 210.448 316.136 209.366 316.136H204.158ZM226.65 314.372C228.293 314.372 229.609 314.876 230.598 315.884C231.606 316.892 232.11 318.217 232.11 319.86C232.11 321.484 231.597 322.791 230.57 323.78C229.562 324.769 228.228 325.264 226.566 325.264H221.106C221.032 325.264 220.994 325.301 220.994 325.376V333.72C220.994 333.907 220.901 334 220.714 334H219.286C219.1 334 219.006 333.907 219.006 333.72V314.652C219.006 314.465 219.1 314.372 219.286 314.372H226.65ZM226.426 323.612C227.528 323.612 228.424 323.276 229.114 322.604C229.805 321.913 230.15 321.008 230.15 319.888C230.15 318.749 229.805 317.835 229.114 317.144C228.424 316.453 227.528 316.108 226.426 316.108H221.106C221.032 316.108 220.994 316.145 220.994 316.22V323.5C220.994 323.575 221.032 323.612 221.106 323.612H226.426ZM241.821 334.224C240.495 334.224 239.329 333.953 238.321 333.412C237.313 332.871 236.529 332.115 235.969 331.144C235.427 330.155 235.157 329.016 235.157 327.728V320.672C235.157 319.384 235.427 318.255 235.969 317.284C236.529 316.295 237.313 315.529 238.321 314.988C239.329 314.447 240.495 314.176 241.821 314.176C243.146 314.176 244.313 314.447 245.321 314.988C246.347 315.529 247.131 316.295 247.673 317.284C248.233 318.255 248.513 319.384 248.513 320.672V327.728C248.513 329.016 248.233 330.155 247.673 331.144C247.131 332.115 246.347 332.871 245.321 333.412C244.313 333.953 243.146 334.224 241.821 334.224ZM241.821 332.516C243.239 332.516 244.378 332.087 245.237 331.228C246.095 330.369 246.525 329.231 246.525 327.812V320.644C246.525 319.225 246.095 318.087 245.237 317.228C244.378 316.351 243.239 315.912 241.821 315.912C240.421 315.912 239.291 316.351 238.433 317.228C237.574 318.087 237.145 319.225 237.145 320.644V327.812C237.145 329.231 237.574 330.369 238.433 331.228C239.291 332.087 240.421 332.516 241.821 332.516ZM264.615 334C264.447 334 264.335 333.935 264.279 333.804L260.163 325.124C260.144 325.068 260.107 325.04 260.051 325.04H255.291C255.216 325.04 255.179 325.077 255.179 325.152V333.72C255.179 333.907 255.085 334 254.899 334H253.471C253.284 334 253.191 333.907 253.191 333.72V314.68C253.191 314.493 253.284 314.4 253.471 314.4H260.723C262.328 314.4 263.625 314.904 264.615 315.912C265.604 316.901 266.099 318.199 266.099 319.804C266.099 321.111 265.744 322.221 265.035 323.136C264.325 324.051 263.364 324.639 262.151 324.9C262.076 324.937 262.057 324.984 262.095 325.04L266.295 333.664C266.313 333.701 266.323 333.748 266.323 333.804C266.323 333.935 266.248 334 266.099 334H264.615ZM255.291 316.136C255.216 316.136 255.179 316.173 255.179 316.248V323.332C255.179 323.407 255.216 323.444 255.291 323.444H260.499C261.581 323.444 262.459 323.108 263.131 322.436C263.803 321.764 264.139 320.887 264.139 319.804C264.139 318.721 263.803 317.844 263.131 317.172C262.459 316.481 261.581 316.136 260.499 316.136H255.291ZM282.994 334C282.826 334 282.714 333.925 282.658 333.776L281.538 330.248C281.52 330.192 281.482 330.164 281.426 330.164H273.054C272.998 330.164 272.961 330.192 272.942 330.248L271.822 333.776C271.766 333.925 271.654 334 271.486 334H269.974C269.769 334 269.694 333.897 269.75 333.692L275.938 314.624C275.994 314.475 276.106 314.4 276.274 314.4H278.178C278.346 314.4 278.458 314.475 278.514 314.624L284.73 333.692L284.758 333.804C284.758 333.935 284.674 334 284.506 334H282.994ZM273.502 328.4C273.484 328.437 273.484 328.475 273.502 328.512C273.54 328.531 273.577 328.54 273.614 328.54H280.838C280.876 328.54 280.904 328.531 280.922 328.512C280.96 328.475 280.969 328.437 280.95 328.4L277.31 316.976C277.292 316.939 277.264 316.92 277.226 316.92C277.189 316.92 277.161 316.939 277.142 316.976L273.502 328.4ZM298.366 314.4C298.553 314.4 298.646 314.493 298.646 314.68V315.884C298.646 316.071 298.553 316.164 298.366 316.164H292.878C292.803 316.164 292.766 316.201 292.766 316.276V333.72C292.766 333.907 292.673 334 292.486 334H291.058C290.871 334 290.778 333.907 290.778 333.72V316.276C290.778 316.201 290.741 316.164 290.666 316.164H285.402C285.215 316.164 285.122 316.071 285.122 315.884V314.68C285.122 314.493 285.215 314.4 285.402 314.4H298.366ZM315.175 315.856C315.175 316.043 315.082 316.136 314.895 316.136H304.591C304.517 316.136 304.479 316.173 304.479 316.248V323.164C304.479 323.239 304.517 323.276 304.591 323.276H311.815C312.002 323.276 312.095 323.369 312.095 323.556V324.732C312.095 324.919 312.002 325.012 311.815 325.012H304.591C304.517 325.012 304.479 325.049 304.479 325.124V332.152C304.479 332.227 304.517 332.264 304.591 332.264H314.895C315.082 332.264 315.175 332.357 315.175 332.544V333.72C315.175 333.907 315.082 334 314.895 334H302.771C302.585 334 302.491 333.907 302.491 333.72V314.68C302.491 314.493 302.585 314.4 302.771 314.4H314.895C315.082 314.4 315.175 314.493 315.175 314.68V315.856ZM180.288 349.856C180.288 350.043 180.195 350.136 180.008 350.136H169.732C169.657 350.136 169.62 350.173 169.62 350.248V357.164C169.62 357.239 169.657 357.276 169.732 357.276H176.928C177.115 357.276 177.208 357.369 177.208 357.556V358.732C177.208 358.919 177.115 359.012 176.928 359.012H169.732C169.657 359.012 169.62 359.049 169.62 359.124V367.72C169.62 367.907 169.527 368 169.34 368H167.912C167.725 368 167.632 367.907 167.632 367.72V348.68C167.632 348.493 167.725 348.4 167.912 348.4H180.008C180.195 348.4 180.288 348.493 180.288 348.68V349.856ZM183.826 368C183.639 368 183.546 367.907 183.546 367.72V348.68C183.546 348.493 183.639 348.4 183.826 348.4H185.254C185.441 348.4 185.534 348.493 185.534 348.68V367.72C185.534 367.907 185.441 368 185.254 368H183.826ZM202.468 348.68C202.468 348.493 202.561 348.4 202.748 348.4H204.176C204.363 348.4 204.456 348.493 204.456 348.68V367.72C204.456 367.907 204.363 368 204.176 368H202.776C202.645 368 202.533 367.935 202.44 367.804L192.892 352.264C192.873 352.208 192.845 352.189 192.808 352.208C192.771 352.208 192.752 352.236 192.752 352.292L192.78 367.72C192.78 367.907 192.687 368 192.5 368H191.072C190.885 368 190.792 367.907 190.792 367.72V348.68C190.792 348.493 190.885 348.4 191.072 348.4H192.472C192.603 348.4 192.715 348.465 192.808 348.596L202.356 364.136C202.375 364.192 202.403 364.22 202.44 364.22C202.477 364.201 202.496 364.164 202.496 364.108L202.468 348.68ZM221.334 368C221.166 368 221.054 367.925 220.998 367.776L219.878 364.248C219.859 364.192 219.822 364.164 219.766 364.164H211.394C211.338 364.164 211.301 364.192 211.282 364.248L210.162 367.776C210.106 367.925 209.994 368 209.826 368H208.314C208.109 368 208.034 367.897 208.09 367.692L214.278 348.624C214.334 348.475 214.446 348.4 214.614 348.4H216.518C216.686 348.4 216.798 348.475 216.854 348.624L223.07 367.692L223.098 367.804C223.098 367.935 223.014 368 222.846 368H221.334ZM211.842 362.4C211.823 362.437 211.823 362.475 211.842 362.512C211.879 362.531 211.917 362.54 211.954 362.54H219.178C219.215 362.54 219.243 362.531 219.262 362.512C219.299 362.475 219.309 362.437 219.29 362.4L215.65 350.976C215.631 350.939 215.603 350.92 215.566 350.92C215.529 350.92 215.501 350.939 215.482 350.976L211.842 362.4ZM238.398 348.68C238.398 348.493 238.491 348.4 238.678 348.4H240.106C240.293 348.4 240.386 348.493 240.386 348.68V367.72C240.386 367.907 240.293 368 240.106 368H238.706C238.575 368 238.463 367.935 238.37 367.804L228.822 352.264C228.803 352.208 228.775 352.189 228.738 352.208C228.701 352.208 228.682 352.236 228.682 352.292L228.71 367.72C228.71 367.907 228.617 368 228.43 368H227.002C226.815 368 226.722 367.907 226.722 367.72V348.68C226.722 348.493 226.815 348.4 227.002 348.4H228.402C228.533 348.4 228.645 348.465 228.738 348.596L238.286 364.136C238.305 364.192 238.333 364.22 238.37 364.22C238.407 364.201 238.426 364.164 238.426 364.108L238.398 348.68ZM251.608 368.252C250.301 368.252 249.153 368 248.164 367.496C247.174 366.973 246.4 366.245 245.84 365.312C245.298 364.36 245.028 363.268 245.028 362.036V354.336C245.028 353.123 245.298 352.049 245.84 351.116C246.4 350.183 247.174 349.464 248.164 348.96C249.153 348.437 250.301 348.176 251.608 348.176C252.914 348.176 254.062 348.428 255.052 348.932C256.041 349.436 256.806 350.145 257.348 351.06C257.908 351.975 258.188 353.029 258.188 354.224C258.188 354.317 258.16 354.392 258.104 354.448C258.048 354.504 257.982 354.532 257.908 354.532L256.48 354.616C256.293 354.616 256.2 354.532 256.2 354.364V354.28C256.2 352.955 255.78 351.9 254.94 351.116C254.1 350.313 252.989 349.912 251.608 349.912C250.226 349.912 249.116 350.313 248.276 351.116C247.436 351.919 247.016 352.973 247.016 354.28V362.12C247.016 363.427 247.436 364.481 248.276 365.284C249.116 366.087 250.226 366.488 251.608 366.488C252.989 366.488 254.1 366.096 254.94 365.312C255.78 364.509 256.2 363.445 256.2 362.12V362.064C256.2 361.896 256.293 361.812 256.48 361.812L257.908 361.896C258.094 361.896 258.188 361.98 258.188 362.148C258.188 363.361 257.908 364.435 257.348 365.368C256.806 366.283 256.041 366.992 255.052 367.496C254.062 368 252.914 368.252 251.608 368.252ZM275.336 349.856C275.336 350.043 275.242 350.136 275.056 350.136H264.752C264.677 350.136 264.64 350.173 264.64 350.248V357.164C264.64 357.239 264.677 357.276 264.752 357.276H271.976C272.162 357.276 272.256 357.369 272.256 357.556V358.732C272.256 358.919 272.162 359.012 271.976 359.012H264.752C264.677 359.012 264.64 359.049 264.64 359.124V366.152C264.64 366.227 264.677 366.264 264.752 366.264H275.056C275.242 366.264 275.336 366.357 275.336 366.544V367.72C275.336 367.907 275.242 368 275.056 368H262.932C262.745 368 262.652 367.907 262.652 367.72V348.68C262.652 348.493 262.745 348.4 262.932 348.4H275.056C275.242 348.4 275.336 348.493 275.336 348.68V349.856ZM179.448 382.4C179.635 382.4 179.728 382.493 179.728 382.68V383.884C179.728 384.071 179.635 384.164 179.448 384.164H173.96C173.885 384.164 173.848 384.201 173.848 384.276V401.72C173.848 401.907 173.755 402 173.568 402H172.14C171.953 402 171.86 401.907 171.86 401.72V384.276C171.86 384.201 171.823 384.164 171.748 384.164H166.484C166.297 384.164 166.204 384.071 166.204 383.884V382.68C166.204 382.493 166.297 382.4 166.484 382.4H179.448ZM194.997 402C194.829 402 194.717 401.935 194.661 401.804L190.545 393.124C190.527 393.068 190.489 393.04 190.433 393.04H185.673C185.599 393.04 185.561 393.077 185.561 393.152V401.72C185.561 401.907 185.468 402 185.281 402H183.853C183.667 402 183.573 401.907 183.573 401.72V382.68C183.573 382.493 183.667 382.4 183.853 382.4H191.105C192.711 382.4 194.008 382.904 194.997 383.912C195.987 384.901 196.481 386.199 196.481 387.804C196.481 389.111 196.127 390.221 195.417 391.136C194.708 392.051 193.747 392.639 192.533 392.9C192.459 392.937 192.44 392.984 192.477 393.04L196.677 401.664C196.696 401.701 196.705 401.748 196.705 401.804C196.705 401.935 196.631 402 196.481 402H194.997ZM185.673 384.136C185.599 384.136 185.561 384.173 185.561 384.248V391.332C185.561 391.407 185.599 391.444 185.673 391.444H190.881C191.964 391.444 192.841 391.108 193.513 390.436C194.185 389.764 194.521 388.887 194.521 387.804C194.521 386.721 194.185 385.844 193.513 385.172C192.841 384.481 191.964 384.136 190.881 384.136H185.673ZM213.377 402C213.209 402 213.097 401.925 213.041 401.776L211.921 398.248C211.902 398.192 211.865 398.164 211.809 398.164H203.437C203.381 398.164 203.344 398.192 203.325 398.248L202.205 401.776C202.149 401.925 202.037 402 201.869 402H200.357C200.152 402 200.077 401.897 200.133 401.692L206.321 382.624C206.377 382.475 206.489 382.4 206.657 382.4H208.561C208.729 382.4 208.841 382.475 208.897 382.624L215.113 401.692L215.141 401.804C215.141 401.935 215.057 402 214.889 402H213.377ZM203.885 396.4C203.866 396.437 203.866 396.475 203.885 396.512C203.922 396.531 203.96 396.54 203.997 396.54H211.221C211.258 396.54 211.286 396.531 211.305 396.512C211.342 396.475 211.352 396.437 211.333 396.4L207.693 384.976C207.674 384.939 207.646 384.92 207.609 384.92C207.572 384.92 207.544 384.939 207.525 384.976L203.885 396.4ZM219.045 402C218.858 402 218.765 401.907 218.765 401.72V382.68C218.765 382.493 218.858 382.4 219.045 382.4H220.473C220.659 382.4 220.753 382.493 220.753 382.68V401.72C220.753 401.907 220.659 402 220.473 402H219.045ZM237.687 382.68C237.687 382.493 237.78 382.4 237.967 382.4H239.395C239.582 382.4 239.675 382.493 239.675 382.68V401.72C239.675 401.907 239.582 402 239.395 402H237.995C237.864 402 237.752 401.935 237.659 401.804L228.111 386.264C228.092 386.208 228.064 386.189 228.027 386.208C227.99 386.208 227.971 386.236 227.971 386.292L227.999 401.72C227.999 401.907 227.906 402 227.719 402H226.291C226.104 402 226.011 401.907 226.011 401.72V382.68C226.011 382.493 226.104 382.4 226.291 382.4H227.691C227.822 382.4 227.934 382.465 228.027 382.596L237.575 398.136C237.594 398.192 237.622 398.22 237.659 398.22C237.696 398.201 237.715 398.164 237.715 398.108L237.687 382.68ZM245.213 402C245.026 402 244.933 401.907 244.933 401.72V382.68C244.933 382.493 245.026 382.4 245.213 382.4H246.641C246.827 382.4 246.921 382.493 246.921 382.68V401.72C246.921 401.907 246.827 402 246.641 402H245.213ZM263.855 382.68C263.855 382.493 263.948 382.4 264.135 382.4H265.563C265.75 382.4 265.843 382.493 265.843 382.68V401.72C265.843 401.907 265.75 402 265.563 402H264.163C264.032 402 263.92 401.935 263.827 401.804L254.279 386.264C254.26 386.208 254.232 386.189 254.195 386.208C254.158 386.208 254.139 386.236 254.139 386.292L254.167 401.72C254.167 401.907 254.074 402 253.887 402H252.459C252.272 402 252.179 401.907 252.179 401.72V382.68C252.179 382.493 252.272 382.4 252.459 382.4H253.859C253.99 382.4 254.102 382.465 254.195 382.596L263.743 398.136C263.762 398.192 263.79 398.22 263.827 398.22C263.864 398.201 263.883 398.164 263.883 398.108L263.855 382.68ZM277.065 402.224C275.758 402.224 274.61 401.972 273.621 401.468C272.631 400.945 271.857 400.217 271.297 399.284C270.755 398.351 270.485 397.277 270.485 396.064V388.336C270.485 387.123 270.755 386.049 271.297 385.116C271.857 384.183 272.631 383.464 273.621 382.96C274.61 382.437 275.758 382.176 277.065 382.176C278.353 382.176 279.491 382.428 280.481 382.932C281.489 383.436 282.263 384.145 282.805 385.06C283.346 385.956 283.617 386.973 283.617 388.112V388.476C283.617 388.663 283.523 388.756 283.337 388.756H281.909C281.722 388.756 281.629 388.663 281.629 388.476V388.14C281.629 386.889 281.209 385.872 280.369 385.088C279.547 384.304 278.446 383.912 277.065 383.912C275.683 383.912 274.573 384.313 273.733 385.116C272.893 385.919 272.473 386.973 272.473 388.28V396.12C272.473 397.427 272.902 398.481 273.761 399.284C274.619 400.087 275.749 400.488 277.149 400.488C278.511 400.488 279.594 400.115 280.397 399.368C281.218 398.621 281.629 397.623 281.629 396.372V393.824C281.629 393.749 281.591 393.712 281.517 393.712H277.401C277.214 393.712 277.121 393.619 277.121 393.432V392.256C277.121 392.069 277.214 391.976 277.401 391.976H283.337C283.523 391.976 283.617 392.069 283.617 392.256V395.868C283.617 397.865 283.019 399.424 281.825 400.544C280.649 401.664 279.062 402.224 277.065 402.224Z" fill="white"/>
<path d="M434 279.67V294M434 216.17V230.5M434 237.17V251.5M434 258.67V273M434 196V210.33M434 128V142.33M434 107V121.33M434 319.17V333.5M434 171V185.33M434 338.669V352.999M434 299.67V314M434 147.5V161.83M434 66V80.3302M434 86.1698V100.5" stroke="white" stroke-width="2"/>
<path d="M455.208 18.624C455.208 18.784 455.144 18.928 455.016 19.056C454.92 19.152 454.792 19.2 454.632 19.2H438.312C438.152 19.2 438.072 19.28 438.072 19.44V28.416C438.072 28.576 438.152 28.656 438.312 28.656H449.304C449.464 28.656 449.592 28.72 449.688 28.848C449.816 28.944 449.88 29.072 449.88 29.232V32.88C449.88 33.04 449.816 33.184 449.688 33.312C449.592 33.408 449.464 33.456 449.304 33.456H438.312C438.152 33.456 438.072 33.536 438.072 33.696V47.424C438.072 47.584 438.008 47.728 437.88 47.856C437.784 47.952 437.656 48 437.496 48H433.08C432.92 48 432.776 47.952 432.648 47.856C432.552 47.728 432.504 47.584 432.504 47.424V14.976C432.504 14.816 432.552 14.688 432.648 14.592C432.776 14.464 432.92 14.4 433.08 14.4H454.632C454.792 14.4 454.92 14.464 455.016 14.592C455.144 14.688 455.208 14.816 455.208 14.976V18.624ZM462.191 20.112C461.199 20.112 460.383 19.792 459.743 19.152C459.103 18.512 458.783 17.696 458.783 16.704C458.783 15.712 459.103 14.896 459.743 14.256C460.383 13.616 461.199 13.296 462.191 13.296C463.183 13.296 463.999 13.616 464.639 14.256C465.279 14.896 465.599 15.712 465.599 16.704C465.599 17.696 465.279 18.512 464.639 19.152C463.999 19.792 463.183 20.112 462.191 20.112ZM459.887 48C459.727 48 459.583 47.952 459.455 47.856C459.359 47.728 459.311 47.584 459.311 47.424V24C459.311 23.84 459.359 23.712 459.455 23.616C459.583 23.488 459.727 23.424 459.887 23.424H464.303C464.463 23.424 464.591 23.488 464.687 23.616C464.815 23.712 464.879 23.84 464.879 24V47.424C464.879 47.584 464.815 47.728 464.687 47.856C464.591 47.952 464.463 48 464.303 48H459.887ZM483.017 23.088C485.609 23.088 487.673 23.856 489.209 25.392C490.777 26.928 491.561 29.024 491.561 31.68V47.424C491.561 47.584 491.497 47.728 491.369 47.856C491.273 47.952 491.145 48 490.985 48H486.569C486.409 48 486.265 47.952 486.137 47.856C486.041 47.728 485.993 47.584 485.993 47.424V32.832C485.993 31.36 485.577 30.176 484.745 29.28C483.913 28.352 482.809 27.888 481.433 27.888C480.057 27.888 478.937 28.336 478.073 29.232C477.241 30.128 476.825 31.312 476.825 32.784V47.424C476.825 47.584 476.761 47.728 476.633 47.856C476.537 47.952 476.409 48 476.249 48H471.833C471.673 48 471.529 47.952 471.401 47.856C471.305 47.728 471.257 47.584 471.257 47.424V24.048C471.257 23.888 471.305 23.76 471.401 23.664C471.529 23.536 471.673 23.472 471.833 23.472H476.249C476.409 23.472 476.537 23.536 476.633 23.664C476.761 23.76 476.825 23.888 476.825 24.048V25.584C476.825 25.68 476.857 25.744 476.921 25.776C476.985 25.808 477.033 25.776 477.065 25.68C478.377 23.952 480.361 23.088 483.017 23.088ZM506.487 48.288C504.471 48.288 502.695 48 501.159 47.424C499.655 46.816 498.487 46 497.655 44.976C496.823 43.92 496.407 42.752 496.407 41.472V41.04C496.407 40.88 496.455 40.752 496.551 40.656C496.679 40.528 496.823 40.464 496.983 40.464H501.207C501.367 40.464 501.495 40.528 501.591 40.656C501.719 40.752 501.783 40.88 501.783 41.04V41.136C501.783 41.936 502.215 42.64 503.079 43.248C503.975 43.824 505.095 44.112 506.439 44.112C507.719 44.112 508.759 43.856 509.559 43.344C510.359 42.8 510.759 42.128 510.759 41.328C510.759 40.592 510.423 40.048 509.751 39.696C509.111 39.312 508.055 38.912 506.583 38.496L504.759 37.92C503.127 37.44 501.751 36.928 500.631 36.384C499.511 35.84 498.567 35.104 497.799 34.176C497.031 33.216 496.647 32 496.647 30.528C496.647 28.288 497.527 26.512 499.287 25.2C501.047 23.856 503.367 23.184 506.247 23.184C508.199 23.184 509.911 23.504 511.383 24.144C512.855 24.752 513.991 25.616 514.791 26.736C515.591 27.824 515.991 29.072 515.991 30.48C515.991 30.64 515.927 30.784 515.799 30.912C515.703 31.008 515.575 31.056 515.415 31.056H511.335C511.175 31.056 511.031 31.008 510.903 30.912C510.807 30.784 510.759 30.64 510.759 30.48C510.759 29.648 510.343 28.96 509.511 28.416C508.711 27.84 507.607 27.552 506.199 27.552C504.951 27.552 503.927 27.792 503.127 28.272C502.359 28.72 501.975 29.36 501.975 30.192C501.975 30.96 502.343 31.552 503.079 31.968C503.847 32.352 505.111 32.784 506.871 33.264L507.927 33.552C509.623 34.064 511.047 34.592 512.199 35.136C513.351 35.648 514.327 36.384 515.127 37.344C515.927 38.272 516.327 39.488 516.327 40.992C516.327 43.264 515.431 45.056 513.639 46.368C511.847 47.648 509.463 48.288 506.487 48.288ZM524.207 20.112C523.215 20.112 522.399 19.792 521.759 19.152C521.119 18.512 520.799 17.696 520.799 16.704C520.799 15.712 521.119 14.896 521.759 14.256C522.399 13.616 523.215 13.296 524.207 13.296C525.199 13.296 526.015 13.616 526.655 14.256C527.295 14.896 527.615 15.712 527.615 16.704C527.615 17.696 527.295 18.512 526.655 19.152C526.015 19.792 525.199 20.112 524.207 20.112ZM521.903 48C521.743 48 521.599 47.952 521.471 47.856C521.375 47.728 521.327 47.584 521.327 47.424V24C521.327 23.84 521.375 23.712 521.471 23.616C521.599 23.488 521.743 23.424 521.903 23.424H526.319C526.479 23.424 526.607 23.488 526.703 23.616C526.831 23.712 526.895 23.84 526.895 24V47.424C526.895 47.584 526.831 47.728 526.703 47.856C526.607 47.952 526.479 48 526.319 48H521.903ZM559.529 23.088C561.993 23.088 563.913 23.84 565.289 25.344C566.697 26.816 567.401 28.88 567.401 31.536V47.424C567.401 47.584 567.337 47.728 567.209 47.856C567.113 47.952 566.985 48 566.825 48H562.457C562.297 48 562.153 47.952 562.025 47.856C561.929 47.728 561.881 47.584 561.881 47.424V32.688C561.881 31.216 561.481 30.048 560.681 29.184C559.913 28.32 558.873 27.888 557.561 27.888C556.249 27.888 555.177 28.32 554.345 29.184C553.513 30.048 553.097 31.2 553.097 32.64V47.424C553.097 47.584 553.033 47.728 552.905 47.856C552.809 47.952 552.681 48 552.521 48H548.153C547.993 48 547.849 47.952 547.721 47.856C547.625 47.728 547.577 47.584 547.577 47.424V32.688C547.577 31.216 547.177 30.048 546.377 29.184C545.577 28.32 544.521 27.888 543.209 27.888C541.993 27.888 540.985 28.24 540.185 28.944C539.417 29.648 538.969 30.608 538.841 31.824V47.424C538.841 47.584 538.777 47.728 538.649 47.856C538.553 47.952 538.425 48 538.265 48H533.849C533.689 48 533.545 47.952 533.417 47.856C533.321 47.728 533.273 47.584 533.273 47.424V24.048C533.273 23.888 533.321 23.76 533.417 23.664C533.545 23.536 533.689 23.472 533.849 23.472H538.265C538.425 23.472 538.553 23.536 538.649 23.664C538.777 23.76 538.841 23.888 538.841 24.048V25.632C538.841 25.728 538.873 25.792 538.937 25.824C539.001 25.856 539.065 25.824 539.129 25.728C539.833 24.832 540.697 24.176 541.721 23.76C542.777 23.312 543.945 23.088 545.225 23.088C546.793 23.088 548.169 23.408 549.353 24.048C550.537 24.688 551.449 25.616 552.089 26.832C552.185 26.96 552.297 26.96 552.425 26.832C553.129 25.552 554.105 24.608 555.353 24C556.601 23.392 557.993 23.088 559.529 23.088ZM583.106 48.384C580.642 48.384 578.514 47.76 576.722 46.512C574.93 45.232 573.682 43.52 572.978 41.376C572.466 39.936 572.21 38.016 572.21 35.616C572.21 33.312 572.466 31.424 572.978 29.952C573.65 27.84 574.882 26.176 576.674 24.96C578.498 23.712 580.642 23.088 583.106 23.088C585.602 23.088 587.778 23.712 589.634 24.96C591.49 26.208 592.722 27.776 593.33 29.664C593.49 30.176 593.602 30.688 593.666 31.2V31.296C593.666 31.616 593.49 31.808 593.138 31.872L588.818 32.496H588.722C588.434 32.496 588.242 32.336 588.146 32.016C588.146 31.856 588.13 31.728 588.098 31.632C588.034 31.376 587.97 31.152 587.906 30.96C587.618 30.064 587.042 29.328 586.178 28.752C585.314 28.176 584.29 27.888 583.106 27.888C581.89 27.888 580.85 28.208 579.986 28.848C579.154 29.456 578.594 30.304 578.306 31.392C577.986 32.416 577.826 33.84 577.826 35.664C577.826 37.424 577.97 38.848 578.258 39.936C578.578 41.056 579.154 41.952 579.986 42.624C580.818 43.264 581.858 43.584 583.106 43.584C584.322 43.584 585.362 43.28 586.226 42.672C587.122 42.032 587.698 41.184 587.954 40.128C587.986 40.064 588.002 39.984 588.002 39.888C588.034 39.856 588.05 39.808 588.05 39.744C588.146 39.36 588.37 39.2 588.722 39.264L593.042 39.936C593.202 39.968 593.33 40.048 593.426 40.176C593.554 40.272 593.602 40.416 593.57 40.608C593.474 41.12 593.394 41.488 593.33 41.712C592.722 43.76 591.49 45.392 589.634 46.608C587.778 47.792 585.602 48.384 583.106 48.384ZM608.564 48.384C606.036 48.384 603.86 47.744 602.036 46.464C600.244 45.184 598.98 43.408 598.244 41.136C597.7 39.408 597.428 37.584 597.428 35.664C597.428 33.616 597.684 31.792 598.196 30.192C598.932 27.952 600.212 26.208 602.036 24.96C603.86 23.712 606.052 23.088 608.612 23.088C611.044 23.088 613.14 23.712 614.9 24.96C616.692 26.208 617.956 27.936 618.692 30.144C619.268 31.68 619.556 33.504 619.556 35.616C619.556 37.632 619.284 39.456 618.74 41.088C618.004 43.36 616.74 45.152 614.948 46.464C613.156 47.744 611.028 48.384 608.564 48.384ZM608.564 43.584C609.748 43.584 610.756 43.248 611.588 42.576C612.452 41.904 613.076 40.96 613.46 39.744C613.78 38.688 613.94 37.344 613.94 35.712C613.94 33.984 613.78 32.64 613.46 31.68C613.108 30.464 612.5 29.536 611.636 28.896C610.772 28.224 609.716 27.888 608.468 27.888C607.284 27.888 606.26 28.224 605.396 28.896C604.532 29.536 603.908 30.464 603.524 31.68C603.204 32.8 603.044 34.144 603.044 35.712C603.044 37.28 603.204 38.624 603.524 39.744C603.876 40.96 604.484 41.904 605.348 42.576C606.244 43.248 607.316 43.584 608.564 43.584Z" fill="white"/>
</svg>
